<svg xmlns="http://www.w3.org/2000/svg" viewBox="39.96 52.08 31.05 31.05" fill="currentColor" aria-hidden="true"><g>
	<path d="M55.565,55.447L55.565,55.447c-0.517,0.006-0.932,0.428-0.928,0.944l-0.058,8.911c-0.01,0.517,0.401,0.944,0.918,0.953
		c0.517,0.01,0.944-0.401,0.953-0.918c0-0.008,0-0.016,0-0.024l0.058-8.911c0.011-0.517-0.4-0.944-0.917-0.955
		C55.584,55.447,55.574,55.447,55.565,55.447z M51.87,58.434c-0.115,0.002-0.229,0.026-0.336,0.069
		c-4.028,1.584-6.858,5.545-6.827,10.148c0.041,5.972,4.898,10.819,10.836,10.796c5.938-0.023,10.734-4.913,10.693-10.885
		c-0.031-4.495-2.78-8.353-6.679-9.976c-0.471-0.213-1.026-0.003-1.238,0.468c-0.213,0.471-0.003,1.026,0.468,1.238
		c0.017,0.008,0.034,0.015,0.051,0.021c3.216,1.339,5.501,4.522,5.526,8.261c0.034,4.968-3.91,8.981-8.829,9.001
		c-4.919,0.019-8.923-3.968-8.957-8.937c-0.026-3.829,2.321-7.088,5.64-8.393c0.484-0.183,0.728-0.723,0.545-1.206
		C52.623,58.669,52.266,58.426,51.87,58.434z"/>
</g></svg>
