<svg xmlns="http://www.w3.org/2000/svg" viewBox="39.6 52.08 31.05 31.05" fill="currentColor" aria-hidden="true"><path style="fill-rule:evenodd;clip-rule:evenodd;" d="M44.868,63.198c-0.207,0.2-0.364,0.427-0.472,0.677
	c-0.108,0.254-0.162,0.524-0.162,0.809s0.054,0.555,0.162,0.809c0.106,0.25,0.265,0.477,0.472,0.677l7.727,7.446
	c0.128,0.142,0.313,0.232,0.521,0.232c0.387,0,0.701-0.313,0.701-0.701V69.3c2.302,0.045,4.111,0.804,5.38,2.178
	c1.369,1.486,2.139,3.71,2.25,6.551c0.005,0.132,0.009,0.25,0.011,0.359c0.005,0.258,0.092,0.497,0.24,0.686
	c0.15,0.193,0.359,0.337,0.607,0.405c0.247,0.068,0.499,0.052,0.724-0.034c0.225-0.088,0.423-0.247,0.558-0.465
	c1.551-2.477,2.313-5.026,2.358-7.419c0.036-1.924-0.393-3.749-1.25-5.356c-0.858-1.607-2.142-2.992-3.818-4.041
	c-1.881-1.178-4.252-1.926-7.059-2.077V56.22h-0.002c0-0.175-0.065-0.35-0.195-0.485c-0.268-0.277-0.71-0.286-0.987-0.02
	L44.868,63.198z M49.208,60.955l-3.373,3.248c-0.07,0.067-0.121,0.141-0.155,0.218c-0.032,0.074-0.047,0.162-0.047,0.263
	c0,0.099,0.016,0.187,0.047,0.263c0.032,0.077,0.085,0.15,0.155,0.218l6.58,6.34V68.61h0.002c0-0.375,0.297-0.685,0.674-0.697
	c0.076-0.004,0.166-0.005,0.267-0.007c2.931-0.056,5.244,0.868,6.866,2.627c1.524,1.654,2.409,4.028,2.594,7.008
	c1.133-2.027,1.694-4.077,1.73-6.001c0.031-1.688-0.342-3.281-1.086-4.677c-0.746-1.396-1.863-2.602-3.324-3.517
	c-1.814-1.135-4.156-1.827-6.974-1.886c-0.014,0.002-0.031,0.002-0.045,0.002c-0.387,0-0.701-0.313-0.701-0.701v-2.895
	L49.208,60.955z"/></svg>
