<svg xmlns="http://www.w3.org/2000/svg" viewBox="42.84 52.08 31.05 31.05" fill="currentColor" aria-hidden="true"><path style="fill-rule:evenodd;clip-rule:evenodd;" d="M58.368,55.471c2.432,0,4.648,0.4,6.263,1.046
	c1.789,0.715,2.895,1.771,2.895,2.996v15.913c0,1.225-1.106,2.281-2.895,2.996c-1.616,0.648-3.831,1.047-6.263,1.047
	c-5.057,0-9.158-1.81-9.158-4.043V59.514c0-1.225,1.106-2.281,2.895-2.996C53.721,55.871,55.936,55.471,58.368,55.471L58.368,55.471
	z M66.262,72.234c-3.495,2.619-12.317,2.54-15.789-0.062v3.254c0,1.536,3.535,2.78,7.894,2.78c2.276,0,4.325-0.364,5.794-0.952
	c1.297-0.519,2.1-1.17,2.1-1.828L66.262,72.234z M66.262,66.929c-3.495,2.619-12.317,2.54-15.789-0.062v3.254
	c0,1.535,3.535,2.779,7.894,2.779c2.276,0,4.325-0.364,5.794-0.952c1.297-0.518,2.1-1.169,2.1-1.827L66.262,66.929z M66.262,61.625
	c-3.495,2.62-12.317,2.54-15.789-0.062v3.254c0,1.536,3.535,2.779,7.894,2.779c2.276,0,4.325-0.364,5.794-0.952
	c1.297-0.518,2.1-1.169,2.1-1.827L66.262,61.625z M64.162,57.687c-3.174-1.269-8.415-1.269-11.589,0
	c-4.883,1.953-0.552,4.606,5.794,4.606c2.276,0,4.325-0.364,5.794-0.952C66.957,60.224,66.957,58.805,64.162,57.687L64.162,57.687z"
	/></svg>
