<svg xmlns="http://www.w3.org/2000/svg" viewBox="40.11 52.12 30.74 30.74" fill="currentColor" aria-hidden="true"><path style="fill-rule:evenodd;clip-rule:evenodd;" d="M59.434,75.098H51.53c-0.154,0.82-0.553,1.554-1.12,2.121
	c-0.734,0.734-1.749,1.188-2.871,1.188c-1.12,0-2.137-0.454-2.871-1.188c-0.734-0.734-1.188-1.749-1.188-2.871
	c0-1.12,0.454-2.137,1.188-2.871c0.734-0.734,1.749-1.188,2.871-1.188c0.471,0,0.925,0.08,1.348,0.23l1.975-3.422
	c0.008-0.014,0.016-0.025,0.023-0.039l1.951-3.381c-0.08-0.068-0.156-0.138-0.228-0.212c-0.734-0.734-1.188-1.749-1.188-2.871
	c0-1.12,0.454-2.137,1.188-2.871c0.734-0.734,1.749-1.188,2.871-1.188c1.12,0,2.137,0.454,2.871,1.188
	c0.734,0.734,1.188,1.749,1.188,2.871c0,1.12-0.454,2.137-1.188,2.871c-0.734,0.734-1.749,1.188-2.871,1.188
	c-0.473,0-0.927-0.082-1.35-0.23l-1.951,3.381c-0.008,0.014-0.014,0.027-0.021,0.041l-1.975,3.422
	c0.078,0.068,0.154,0.138,0.228,0.21c0.567,0.567,0.966,1.299,1.12,2.121h7.901c0.154-0.82,0.553-1.554,1.12-2.121
	c0.734-0.734,1.749-1.188,2.871-1.188c1.12,0,2.137,0.454,2.871,1.188c0.734,0.734,1.188,1.749,1.188,2.871
	c0,1.12-0.454,2.137-1.188,2.871c-0.734,0.734-1.749,1.188-2.871,1.188c-1.12,0-2.137-0.454-2.871-1.188
	C59.987,76.65,59.586,75.918,59.434,75.098L59.434,75.098z M57.292,58.785c-0.464-0.464-1.102-0.75-1.809-0.75
	s-1.346,0.286-1.809,0.75c-0.464,0.464-0.75,1.102-0.75,1.809c0,0.707,0.286,1.346,0.75,1.809c0.464,0.464,1.102,0.75,1.809,0.75
	s1.346-0.286,1.809-0.75c0.464-0.464,0.75-1.102,0.75-1.809C58.041,59.887,57.755,59.248,57.292,58.785z M49.351,72.537
	c-0.464-0.464-1.102-0.75-1.809-0.75s-1.346,0.286-1.809,0.75s-0.75,1.102-0.75,1.809c0,0.707,0.286,1.346,0.75,1.809
	c0.464,0.464,1.102,0.75,1.809,0.75s1.346-0.286,1.809-0.75c0.464-0.464,0.75-1.102,0.75-1.809
	C50.101,73.641,49.815,73,49.351,72.537z M65.232,72.537c-0.464-0.464-1.102-0.75-1.809-0.75c-0.707,0-1.346,0.286-1.809,0.75
	c-0.464,0.464-0.75,1.102-0.75,1.809c0,0.707,0.286,1.346,0.75,1.809c0.464,0.464,1.102,0.75,1.809,0.75
	c0.707,0,1.346-0.286,1.809-0.75c0.464-0.464,0.75-1.102,0.75-1.809C65.982,73.641,65.695,73,65.232,72.537z"/></svg>
