<svg xmlns="http://www.w3.org/2000/svg" viewBox="39.96 52.08 31.05 31.05" fill="currentColor" aria-hidden="true"><path d="M62.558,73.625V57.625c-0.006-1.187-0.967-2.147-2.153-2.154H46.865c-1.186,0.007-2.147,0.967-2.153,2.154v15.999
	c0.006,1.187,0.967,2.147,2.153,2.154h13.539C61.591,75.772,62.552,74.812,62.558,73.625z M46.557,73.625l0.001-15.999
	c0-0.171,0.137-0.308,0.307-0.308h13.539c0.081,0,0.159,0.032,0.217,0.09c0.058,0.058,0.09,0.136,0.09,0.218v15.999
	c0,0.082-0.032,0.16-0.09,0.218c-0.058,0.058-0.136,0.09-0.217,0.09H46.865c-0.17,0-0.307-0.137-0.307-0.308L46.557,73.625z
	 M66.25,60.087v17.23c-0.006,1.187-0.967,2.147-2.153,2.154H49.328c-0.51,0-0.923-0.413-0.923-0.923s0.413-0.923,0.923-0.923h14.769
	c0.081,0,0.159-0.032,0.217-0.09c0.058-0.058,0.09-0.136,0.09-0.218v-17.23c0-0.51,0.414-0.923,0.923-0.923
	C65.837,59.163,66.25,59.577,66.25,60.087L66.25,60.087z"/></svg>
