<svg xmlns="http://www.w3.org/2000/svg" viewBox="40.11 52.12 30.74 30.74" fill="currentColor" aria-hidden="true"><path style="fill-rule:evenodd;clip-rule:evenodd;" d="M56.051,56.281l2.71,7.667l8.127,0.208c0.573,0.014,0.803,0.742,0.353,1.087
	l0.001,0.001l-6.454,4.945l2.315,7.797c0.16,0.541-0.455,1.005-0.941,0.659l-6.682-4.599l-6.698,4.61
	c-0.47,0.324-1.085-0.126-0.925-0.669h0l2.315-7.797l-6.454-4.945c-0.449-0.344-0.229-1.087,0.383-1.088l8.098-0.207l2.71-7.667
	C55.098,55.742,55.861,55.745,56.051,56.281L56.051,56.281L56.051,56.281z M57.756,64.745l-2.277-6.441l-2.277,6.441l-0.001,0
	c-0.081,0.23-0.298,0.398-0.557,0.404l-6.831,0.174l5.424,4.156c0.194,0.148,0.286,0.405,0.214,0.653l-1.946,6.553l5.621-3.868
	c0.202-0.144,0.481-0.155,0.697-0.006l5.629,3.874l-1.94-6.535c-0.078-0.238-0.002-0.51,0.208-0.671l5.424-4.156l-6.793-0.174
	C58.092,65.159,57.846,65.002,57.756,64.745z"/></svg>
