<svg xmlns="http://www.w3.org/2000/svg" viewBox="40.11 52.24 30.74 30.74" fill="currentColor" aria-hidden="true"><g>
	<path d="M44.479,57.185h21.334c0.921,0,1.667,0.746,1.667,1.667v0.094c0,0.921-0.746,1.667-1.667,1.667H44.479
		c-0.551,0-0.998-0.447-0.998-0.998v-1.432C43.481,57.632,43.928,57.185,44.479,57.185z"/>
	<path d="M44.482,65.757h15.14c0.554,0,1.002,0.449,1.002,1.002v1.424c0,0.554-0.449,1.002-1.002,1.002h-15.14
		c-0.553,0-1.001-0.448-1.001-1.001v-1.427C43.481,66.205,43.929,65.757,44.482,65.757z"/>
	<path d="M44.486,74.328h8.281c0.552,0,1,0.448,1,1v1.429c0,0.552-0.448,1-1,1h-8.281c-0.555,0-1.005-0.45-1.005-1.005v-1.419
		C43.481,74.778,43.931,74.328,44.486,74.328z"/>
</g></svg>
