<svg xmlns="http://www.w3.org/2000/svg" viewBox="39.96 51.12 31.05 31.05" fill="currentColor" aria-hidden="true"><path d="M67.481,66.58c0,4.288-2.287,8.249-6,10.393c-3.713,2.143-8.287,2.143-12,0c-3.713-2.144-6-6.105-6-10.393
	c0-0.51,0.413-0.923,0.923-0.923c0.51,0,0.923,0.413,0.923,0.923c-0.012,3.178,1.461,6.179,3.981,8.116
	c2.52,1.936,5.799,2.586,8.867,1.757s5.574-3.04,6.776-5.983c1.201-2.942,0.962-6.276-0.646-9.016
	c-1.61-2.74-4.405-4.573-7.56-4.956c-3.156-0.383-6.308,0.728-8.526,3.005h2.954c0.509,0,0.923,0.413,0.923,0.923
	c0,0.509-0.414,0.923-0.923,0.923H46.25c-0.507-0.007-0.916-0.417-0.923-0.923v-4.923c0-0.51,0.413-0.923,0.923-0.923
	c0.51,0,0.923,0.413,0.923,0.923v2.461c2.27-2.188,5.309-3.393,8.461-3.356c3.152,0.038,6.163,1.314,8.38,3.555
	C66.232,60.404,67.478,63.428,67.481,66.58L67.481,66.58z M55.481,59.503c-0.507,0.006-0.916,0.415-0.923,0.923v6.153
	c0.002,0.347,0.196,0.665,0.504,0.825l4.923,2.461c0.132,0.062,0.273,0.096,0.419,0.098c0.351,0.001,0.673-0.2,0.824-0.517
	c0.111-0.217,0.13-0.468,0.054-0.7c-0.076-0.231-0.242-0.422-0.46-0.53l-4.418-2.203v-5.588
	C56.397,59.919,55.987,59.509,55.481,59.503L55.481,59.503z"/></svg>
