<svg xmlns="http://www.w3.org/2000/svg" viewBox="40.08 52.08 31.05 31.05" fill="currentColor" aria-hidden="true"><path style="fill-rule:evenodd;clip-rule:evenodd;" d="M49.533,75.314h3.093v-3.793c0-0.528,0.216-1.009,0.563-1.355
	c0.348-0.348,0.828-0.563,1.355-0.563h2.068c0.528,0,1.009,0.216,1.355,0.563c0.347,0.347,0.563,0.828,0.563,1.355v3.793h3.093
	c0.57,0,1.089-0.232,1.466-0.609c0.376-0.376,0.609-0.895,0.609-1.466l0.001-6.133c0-0.316,0.256-0.572,0.572-0.572h1.05
	L56.84,60.06c-0.378-0.288-0.819-0.432-1.26-0.432s-0.882,0.144-1.26,0.432l-8.483,6.474h1.05c0.316,0,0.572,0.256,0.572,0.572
	v6.133c0,0.57,0.232,1.089,0.609,1.466C48.444,75.082,48.963,75.314,49.533,75.314L49.533,75.314z M53.77,75.314v-3.793
	c0-0.213,0.087-0.407,0.228-0.548c0.141-0.141,0.335-0.228,0.548-0.228h2.068c0.213,0,0.407,0.087,0.548,0.228
	c0.141,0.141,0.228,0.335,0.228,0.548v3.793H53.77z M61.626,76.458H49.533c-0.886,0-1.691-0.362-2.273-0.944
	c-0.582-0.582-0.944-1.386-0.944-2.274v-5.561h-2.167v-0.001c-0.172,0-0.341-0.078-0.453-0.225c-0.191-0.25-0.143-0.609,0.107-0.8
	l9.825-7.499c0.584-0.445,1.267-0.669,1.951-0.669s1.367,0.223,1.951,0.669l9.794,7.475c0.154,0.103,0.256,0.278,0.256,0.476
	c0,0.316-0.256,0.572-0.572,0.572l-2.165,0.001v5.561c0,0.886-0.362,1.691-0.944,2.274C63.316,76.096,62.512,76.458,61.626,76.458
	L61.626,76.458z"/></svg>
