<?xml version="1.0" encoding="iso-8859-1"?>
<!-- Generator: Adobe Illustrator 29.2.1, SVG Export Plug-In . SVG Version: 9.03 Build 55982)  -->
<svg version="1.1" id="Capa_1" xmlns="http://www.w3.org/2000/svg" xmlns:xlink="http://www.w3.org/1999/xlink" x="0px" y="0px"
	 viewBox="0 0 110 135" style="enable-background:new 0 0 110 135;" xml:space="preserve">
<path style="fill-rule:evenodd;clip-rule:evenodd;" d="M65.487,66.675v8.812c0,0.692-0.283,1.321-0.74,1.777
	c-0.456,0.456-1.086,0.74-1.777,0.74l-15.866,0.002c-0.692,0-1.321-0.283-1.777-0.74c-0.456-0.456-0.74-1.086-0.74-1.777V59.62
	c0-0.692,0.283-1.321,0.74-1.777c0.456-0.456,1.086-0.74,1.777-0.74h8.825c0.428,0,0.774-0.348,0.774-0.774
	c0-0.428-0.348-0.774-0.774-0.774l-8.825-0.002c-1.12,0-2.135,0.456-2.873,1.194c-0.736,0.736-1.194,1.753-1.194,2.873v15.866
	c0,1.12,0.456,2.135,1.194,2.873c0.736,0.736,1.753,1.194,2.873,1.194H62.97c1.12,0,2.135-0.456,2.873-1.194
	c0.736-0.736,1.194-1.753,1.194-2.873v-8.812c0-0.428-0.348-0.774-0.774-0.774C65.835,65.901,65.487,66.249,65.487,66.675
	L65.487,66.675z M62.11,57.811L51.117,68.806l-0.223,2.935l2.897-0.255l10.997-10.999c0.627-0.627,0.688-1.363,0.428-1.966
	c-0.107-0.247-0.267-0.478-0.462-0.673c-0.197-0.197-0.426-0.356-0.673-0.462C63.475,57.123,62.737,57.184,62.11,57.811
	L62.11,57.811z M49.82,67.913c-0.145,0.145-0.219,0.332-0.227,0.521l-0.312,4.099c-0.032,0.426,0.287,0.796,0.714,0.828
	c0.042,0.004,0.084,0.002,0.125,0l4.085-0.36c0.189-0.016,0.356-0.099,0.48-0.223l11.196-11.196c1.15-1.15,1.248-2.527,0.754-3.673
	c-0.187-0.432-0.458-0.826-0.79-1.158c-0.332-0.332-0.726-0.603-1.158-0.79c-1.144-0.493-2.523-0.394-3.673,0.754L49.82,67.913z"/>
</svg>
