<?xml version="1.0" encoding="iso-8859-1"?>
<!-- Generator: Adobe Illustrator 29.2.1, SVG Export Plug-In . SVG Version: 9.03 Build 55982)  -->
<svg version="1.1" id="Capa_1" xmlns="http://www.w3.org/2000/svg" xmlns:xlink="http://www.w3.org/1999/xlink" x="0px" y="0px"
	 viewBox="0 0 110 135" style="enable-background:new 0 0 110 135;" xml:space="preserve">
<path d="M55.483,67.471c-1.591,0-3.118-0.632-4.243-1.757c-1.125-1.125-1.757-2.652-1.757-4.243c0-1.591,0.632-3.118,1.757-4.243
	c1.125-1.125,2.652-1.757,4.243-1.757s3.118,0.632,4.243,1.757s1.757,2.652,1.757,4.243c-0.002,1.591-0.634,3.116-1.759,4.241
	C58.599,66.837,57.074,67.469,55.483,67.471L55.483,67.471z M55.483,57.186c-1.137,0-2.226,0.451-3.03,1.256
	c-0.805,0.804-1.256,1.893-1.256,3.03s0.451,2.226,1.256,3.03c0.804,0.805,1.893,1.256,3.03,1.256c1.137,0,2.226-0.451,3.03-1.256
	c0.805-0.804,1.256-1.893,1.256-3.03c-0.001-1.136-0.453-2.225-1.257-3.029C57.709,57.639,56.619,57.187,55.483,57.186
	L55.483,57.186z M55.483,79.471c-2.642-0.001-5.28-0.238-7.879-0.709c-0.9-0.163-1.553-0.948-1.549-1.862
	c0.002-2.273,0.906-4.451,2.514-6.058c1.607-1.607,3.785-2.511,6.058-2.514h1.714c2.273,0.002,4.451,0.906,6.058,2.514
	c1.607,1.607,2.511,3.785,2.514,6.058c0.002,0.911-0.647,1.694-1.543,1.859C60.766,79.231,58.128,79.47,55.483,79.471L55.483,79.471
	z M54.626,70.043c-1.818,0.002-3.561,0.725-4.846,2.011c-1.286,1.285-2.009,3.028-2.011,4.846c0.002,0.082,0.06,0.153,0.14,0.171
	c5.011,0.904,10.143,0.904,15.153,0c0.08-0.017,0.137-0.089,0.135-0.171c-0.002-1.818-0.725-3.561-2.011-4.846
	c-1.285-1.286-3.028-2.009-4.846-2.011H54.626z"/>
</svg>
