<?xml version="1.0" encoding="iso-8859-1"?>
<!-- Generator: Adobe Illustrator 29.2.1, SVG Export Plug-In . SVG Version: 9.03 Build 55982)  -->
<svg version="1.1" id="Capa_1" xmlns="http://www.w3.org/2000/svg" xmlns:xlink="http://www.w3.org/1999/xlink" x="0px" y="0px"
	 viewBox="0 0 110 135" style="enable-background:new 0 0 110 135;" xml:space="preserve">
<path d="M64.663,58.888c-2.61-0.651-5.141-1.589-7.545-2.796l-0.708-0.348c-0.612-0.298-1.327-0.298-1.939,0l-0.708,0.348
	c-2.404,1.207-4.935,2.145-7.545,2.796C45.248,59.128,44.565,60,44.566,61v3.79c0.008,3.169,0.979,6.262,2.782,8.867
	c1.805,2.605,4.358,4.601,7.322,5.724c0.498,0.183,1.043,0.183,1.54,0c2.964-1.123,5.517-3.119,7.322-5.724
	c1.804-2.605,2.774-5.698,2.782-8.867v-3.729C66.341,60.04,65.655,59.137,64.663,58.888L64.663,58.888z M64.452,64.792l-0.001-0.001
	c-0.009,2.791-0.865,5.514-2.454,7.808c-1.588,2.294-3.836,4.054-6.444,5.044c-0.072,0.024-0.151,0.024-0.224,0
	c-2.609-0.99-4.856-2.75-6.444-5.044c-1.589-2.294-2.445-5.017-2.454-7.808v-3.729c0.006-0.14,0.1-0.26,0.235-0.298
	c2.742-0.689,5.4-1.672,7.93-2.933l0.708-0.36h0.273l0.708,0.36c2.53,1.261,5.189,2.244,7.93,2.933
	c0.135,0.038,0.23,0.158,0.235,0.298L64.452,64.792z M60.176,63.038c0.394,0.332,0.449,0.918,0.125,1.318l-5.183,6.214
	c-0.168,0.202-0.41,0.323-0.671,0.336c-0.247,0-0.485-0.098-0.659-0.273l-3.144-3.145c-0.178-0.174-0.278-0.41-0.278-0.658
	c0-0.248,0.1-0.486,0.278-0.659c0.184-0.164,0.426-0.249,0.673-0.235c0.247,0.014,0.479,0.126,0.643,0.31l2.386,2.386l4.524-5.431
	C59.188,62.796,59.771,62.724,60.176,63.038L60.176,63.038z"/>
</svg>
