<?xml version="1.0" encoding="iso-8859-1"?>
<!-- Generator: Adobe Illustrator 29.2.1, SVG Export Plug-In . SVG Version: 9.03 Build 55982)  -->
<svg version="1.1" id="Capa_1" xmlns="http://www.w3.org/2000/svg" xmlns:xlink="http://www.w3.org/1999/xlink" x="0px" y="0px"
	 viewBox="0 0 110 135" style="enable-background:new 0 0 110 135;" xml:space="preserve">
<path style="fill-rule:evenodd;clip-rule:evenodd;" d="M49.301,73.236c0.028,0.065,0.07,0.126,0.123,0.181l2.889,2.922
	c0.234,0.235,0.612,0.238,0.849,0.005c2.285-2.26,4.565-4.518,6.837-6.792l-0.002-0.002l6.686-6.648
	c0.528-0.525,0.793-1.219,0.795-1.914c0.002-0.694-0.259-1.387-0.784-1.915c-0.525-0.528-1.219-0.793-1.914-0.795
	c-0.694-0.002-1.387,0.259-1.915,0.784L57.7,64.2c-0.034,0.028-0.062,0.051-0.084,0.072c-0.042,0.039-0.078,0.072-0.104,0.098
	l-4.702,4.702l-4.703-4.703c-0.528-0.528-1.222-0.792-1.915-0.792s-1.387,0.263-1.915,0.792l-0.005,0.005
	c-0.528,0.528-0.792,1.222-0.792,1.915c0,0.694,0.263,1.387,0.792,1.915L49.301,73.236z M45.118,67.356l5.185,5.185l-0.002,0.002
	l0.002,0.002c0.053,0.053,0.095,0.115,0.123,0.179l2.319,2.344l3.767-3.726l2.635-2.635c0.012-0.012,0.025-0.023,0.037-0.036
	l6.656-6.616c0.295-0.293,0.443-0.679,0.444-1.066c0.002-0.388-0.145-0.776-0.438-1.071c-0.293-0.295-0.679-0.443-1.066-0.444
	c-0.388-0.002-0.776,0.145-1.071,0.438l-5.187,5.157c-0.014,0.014-0.03,0.028-0.045,0.041c-0.012,0.009-0.033,0.028-0.061,0.053
	c-0.012,0.011-0.031,0.03-0.058,0.055l-5.127,5.129c-0.234,0.234-0.614,0.234-0.849,0l-5.127-5.127
	c-0.293-0.293-0.679-0.439-1.068-0.439c-0.386,0-0.773,0.146-1.066,0.439l-0.005,0.005c-0.293,0.293-0.439,0.679-0.439,1.066
	C44.679,66.676,44.825,67.063,45.118,67.356L45.118,67.356z"/>
</svg>
