<?xml version="1.0" encoding="iso-8859-1"?>
<!-- Generator: Adobe Illustrator 29.2.1, SVG Export Plug-In . SVG Version: 9.03 Build 55982)  -->
<svg version="1.1" id="Capa_1" xmlns="http://www.w3.org/2000/svg" xmlns:xlink="http://www.w3.org/1999/xlink" x="0px" y="0px"
	 viewBox="0 0 110 135" style="enable-background:new 0 0 110 135;" xml:space="preserve">
<path style="fill-rule:evenodd;clip-rule:evenodd;" d="M48.344,78.04h14.273c0.493,0,0.943-0.203,1.268-0.528
	c0.325-0.325,0.528-0.775,0.528-1.268c0-0.493-0.203-0.943-0.528-1.268c-0.325-0.325-0.775-0.528-1.268-0.528H48.344
	c-0.493,0-0.941,0.203-1.268,0.528c-0.325,0.325-0.528,0.775-0.528,1.268c0,0.493,0.203,0.943,0.528,1.268
	C47.404,77.837,47.852,78.04,48.344,78.04z M62.618,79.471c0.889,0,1.695-0.363,2.279-0.948c0.584-0.584,0.948-1.392,0.948-2.279
	c0-0.889-0.363-1.695-0.948-2.279c-0.584-0.584-1.392-0.948-2.279-0.948H48.344c-0.889,0-1.695,0.363-2.279,0.948
	c-0.584,0.584-0.948,1.392-0.948,2.279c0,0.889,0.363,1.695,0.948,2.279c0.584,0.584,1.392,0.948,2.279,0.948H62.618z
	 M54.975,70.624c0.279,0.279,0.732,0.279,1.013,0l9.647-9.647c0.628-0.628,0.943-1.454,0.943-2.279c0-0.825-0.314-1.651-0.943-2.279
	l-0.006-0.006c-0.628-0.628-1.454-0.943-2.279-0.943s-1.651,0.314-2.279,0.943l-5.59,5.59l-5.59-5.59
	c-0.628-0.628-1.454-0.943-2.279-0.943c-0.825,0-1.651,0.314-2.279,0.943l-0.006,0.006c-0.628,0.628-0.943,1.454-0.943,2.279
	s0.314,1.651,0.943,2.279L54.975,70.624z M46.34,59.965l9.141,9.141l9.141-9.141c0.348-0.348,0.522-0.807,0.522-1.266
	s-0.175-0.918-0.522-1.266l-0.006-0.006c-0.348-0.348-0.807-0.522-1.266-0.522s-0.918,0.175-1.266,0.522l-6.097,6.096
	c-0.279,0.279-0.732,0.279-1.013,0l-6.094-6.096c-0.348-0.348-0.807-0.522-1.266-0.522s-0.918,0.175-1.266,0.522l-0.006,0.006
	c-0.348,0.348-0.522,0.807-0.522,1.266C45.818,59.158,45.99,59.617,46.34,59.965L46.34,59.965z"/>
</svg>
