<?xml version="1.0" encoding="iso-8859-1"?>
<!-- Generator: Adobe Illustrator 29.2.1, SVG Export Plug-In . SVG Version: 9.03 Build 55982)  -->
<svg version="1.1" id="Capa_1" xmlns="http://www.w3.org/2000/svg" xmlns:xlink="http://www.w3.org/1999/xlink" x="0px" y="0px"
	 viewBox="0 0 110 135" style="enable-background:new 0 0 110 135;" xml:space="preserve">
<path d="M57.373,55.319c-2.528,0.003-4.953,1.01-6.741,2.797c-1.789,1.789-2.795,4.213-2.797,6.742
	c-0.013,2.207,0.749,4.351,2.153,6.056l-6.806,6.831c-0.36,0.36-0.36,0.944,0,1.304c0.36,0.36,0.944,0.36,1.304,0l6.831-6.806
	c1.704,1.404,3.848,2.166,6.056,2.153c3.409,0,6.557-1.817,8.261-4.769c1.704-2.952,1.704-6.588,0-9.539
	C63.931,57.137,60.782,55.319,57.373,55.319L57.373,55.319z M57.373,72.55c-2.04,0-3.996-0.81-5.439-2.252
	c-1.442-1.444-2.252-3.399-2.252-5.439s0.81-3.997,2.252-5.439c1.444-1.444,3.399-2.254,5.439-2.254c2.04,0,3.997,0.81,5.439,2.254
	c1.444,1.442,2.254,3.399,2.254,5.439c0,2.04-0.81,3.996-2.254,5.439C61.37,71.74,59.413,72.55,57.373,72.55z"/>
</svg>
