<?xml version="1.0" encoding="iso-8859-1"?>
<!-- Generator: Adobe Illustrator 29.2.1, SVG Export Plug-In . SVG Version: 9.03 Build 55982)  -->
<svg version="1.1" id="Capa_1" xmlns="http://www.w3.org/2000/svg" xmlns:xlink="http://www.w3.org/1999/xlink" x="0px" y="0px"
	 viewBox="0 0 110 135" style="enable-background:new 0 0 110 135;" xml:space="preserve">
<g>
	<path d="M46.928,73.352h2.737c0.246,0,0.463-0.197,0.463-0.438V65.26c0-0.246-0.217-0.423-0.463-0.423h-2.343v-0.576
		c0-4.341,3.45-7.875,7.678-7.875s7.678,3.534,7.678,7.875v0.576h-2.343c-0.246,0-0.463,0.177-0.463,0.423v7.654
		c0,0.246,0.217,0.438,0.463,0.438h0.719v2.102c0,1.004-0.817,1.836-1.821,1.836h-3.864c-0.182-0.788-0.866-1.339-1.688-1.339
		c-0.96,0-1.737,0.773-1.737,1.733v0.069c0,0.96,0.778,1.747,1.737,1.747c0.817,0,1.501-0.586,1.688-1.324h3.864
		c1.491,0,2.707-1.231,2.707-2.722v-2.102h1.132c1.058,0,1.92-0.856,1.92-1.915v-4.701c0-0.896-0.591-1.649-1.427-1.861v-0.615
		c0-4.833-3.849-8.761-8.564-8.761s-8.564,3.928-8.564,8.761v0.615c-0.837,0.212-1.427,0.965-1.427,1.861v4.701
		C45.008,72.496,45.87,73.352,46.928,73.352z M54.557,77.753c0,0.473-0.389,0.856-0.861,0.856s-0.861-0.384-0.861-0.856v-0.069
		c0-0.473,0.389-0.856,0.861-0.856s0.861,0.384,0.861,0.856V77.753z M64.106,66.737v4.701c0,0.571-0.463,1.029-1.034,1.029h-2.313
		v-6.743h2.313C63.643,65.723,64.106,66.166,64.106,66.737z M45.894,66.737c0-0.571,0.463-1.014,1.034-1.014h2.313v6.743h-2.313
		c-0.571,0-1.034-0.463-1.034-1.029V66.737z"/>
</g>
</svg>
