<?xml version="1.0" encoding="iso-8859-1"?>
<!-- Generator: Adobe Illustrator 29.2.1, SVG Export Plug-In . SVG Version: 9.03 Build 55982)  -->
<svg version="1.1" id="Capa_1" xmlns="http://www.w3.org/2000/svg" xmlns:xlink="http://www.w3.org/1999/xlink" x="0px" y="0px"
	 viewBox="0 0 110 135" style="enable-background:new 0 0 110 135;" xml:space="preserve">
<path d="M61.849,55.489h-7.298c-0.953-0.012-1.873,0.356-2.555,1.022l-5.458,5.499c-0.662,0.685-1.029,1.602-1.022,2.555V75.87
	c0.005,1.996,1.623,3.613,3.618,3.618h12.716c1.996-0.005,3.613-1.623,3.618-3.618V59.107
	C65.462,57.111,63.844,55.493,61.849,55.489L61.849,55.489z M52.936,57.533l0.194-0.164v5.52h-5.591L52.936,57.533z M64.179,75.932
	c-0.005,1.262-1.027,2.285-2.29,2.29H49.092c-0.617-0.003-1.207-0.253-1.638-0.695c-0.431-0.442-0.666-1.039-0.652-1.656V64.566
	c-0.01-0.115-0.01-0.233,0-0.348h6.951c0.367,0,0.664-0.298,0.664-0.664v-6.726h7.39c0.612-0.008,1.201,0.227,1.639,0.655
	c0.437,0.428,0.686,1.012,0.691,1.624L64.179,75.932z"/>
<path d="M59.621,67.305H51.28c-0.367,0-0.664,0.298-0.664,0.664s0.298,0.664,0.664,0.664h8.341c0.367,0,0.664-0.298,0.664-0.664
	S59.987,67.305,59.621,67.305z"/>
<path d="M59.621,70.004H51.28c-0.367,0-0.664,0.298-0.664,0.664c0,0.367,0.298,0.664,0.664,0.664h8.341
	c0.367,0,0.664-0.298,0.664-0.664C60.285,70.301,59.987,70.004,59.621,70.004z"/>
<path d="M59.621,72.702H51.28c-0.367,0-0.664,0.298-0.664,0.664c0,0.367,0.298,0.664,0.664,0.664h8.341
	c0.364-0.005,0.659-0.3,0.664-0.664C60.28,73.002,59.985,72.707,59.621,72.702z"/>
</svg>
