<?xml version="1.0" encoding="iso-8859-1"?>
<!-- Generator: Adobe Illustrator 29.2.1, SVG Export Plug-In . SVG Version: 9.03 Build 55982)  -->
<svg version="1.1" id="Capa_1" xmlns="http://www.w3.org/2000/svg" xmlns:xlink="http://www.w3.org/1999/xlink" x="0px" y="0px"
	 viewBox="0 0 110 135" style="enable-background:new 0 0 110 135;" xml:space="preserve">
<path style="fill-rule:evenodd;clip-rule:evenodd;" d="M47.06,59.648h16.844c0.321,0,0.581-0.261,0.581-0.581
	c0-0.321-0.261-0.581-0.581-0.581h-4.89v-0.453c0-0.707-0.265-1.352-0.715-1.818c-0.445-0.462-1.062-0.745-1.777-0.745h-1.578
	c-0.686,0-1.309,0.279-1.76,0.732c-0.451,0.451-0.732,1.074-0.732,1.76v0.525l-5.393-0.002c-0.321,0-0.581,0.261-0.581,0.581
	C46.478,59.387,46.739,59.648,47.06,59.648L47.06,59.648z M53.614,58.486h4.239v-0.453c0-0.401-0.145-0.762-0.389-1.015
	c-0.231-0.24-0.558-0.388-0.941-0.388h-1.578c-0.367,0-0.698,0.149-0.94,0.391c-0.241,0.241-0.391,0.573-0.391,0.94L53.614,58.486z
	 M57.094,65.39l-0.042,9.497c-0.002,0.32,0.256,0.579,0.576,0.581c0.32,0.002,0.579-0.256,0.581-0.576l0.042-9.497
	c0.002-0.32-0.256-0.579-0.576-0.581C57.355,64.813,57.094,65.071,57.094,65.39z M52.755,65.39l-0.042,9.497
	c-0.002,0.32,0.256,0.579,0.576,0.581c0.32,0.002,0.579-0.256,0.581-0.576l0.042-9.497c0.002-0.32-0.256-0.579-0.576-0.581
	C53.016,64.813,52.756,65.071,52.755,65.39z M53.782,78.31h3.4c0.816,0,1.561-0.294,2.131-0.789c0.57-0.495,0.965-1.192,1.08-1.996
	l1.652-11.634c0.041-0.291,0.288-0.501,0.575-0.499V63.39h0.522c0.051,0,0.098-0.02,0.13-0.051l0.003-0.002
	c0.032-0.032,0.051-0.078,0.051-0.13v-1.051c0-0.051-0.02-0.098-0.051-0.13l-0.003-0.003c-0.032-0.032-0.077-0.051-0.13-0.051
	l-15.318-0.002c-0.051,0-0.098,0.02-0.13,0.051l-0.003,0.002c-0.032,0.032-0.051,0.078-0.051,0.13v1.051
	c0,0.051,0.02,0.098,0.051,0.13l0.002,0.003c0.032,0.032,0.078,0.051,0.13,0.051h0.522c0.306,0,0.558,0.238,0.579,0.538
	l1.646,11.598c0.115,0.805,0.51,1.501,1.08,1.996C52.221,78.015,52.967,78.31,53.782,78.31L53.782,78.31z M57.182,79.471
	c1.101,0,2.113-0.4,2.889-1.074c0.777-0.674,1.315-1.62,1.469-2.712l1.579-11.133h0.02c0.368,0,0.704-0.151,0.949-0.395l0.003-0.003
	c0.243-0.244,0.394-0.579,0.394-0.947v-1.051c0-0.368-0.151-0.704-0.395-0.949l-0.003-0.003c-0.244-0.243-0.579-0.394-0.947-0.394
	H47.824c-0.368,0-0.704,0.151-0.949,0.395l-0.003,0.003c-0.243,0.244-0.394,0.579-0.394,0.947v1.051
	c0,0.368,0.151,0.704,0.395,0.949l0.003,0.003c0.244,0.243,0.579,0.394,0.947,0.394h0.02l1.579,11.133
	c0.155,1.092,0.694,2.039,1.469,2.712c0.777,0.674,1.787,1.074,2.889,1.074H57.182z"/>
</svg>
