<?xml version="1.0" encoding="iso-8859-1"?>
<!-- Generator: Adobe Illustrator 29.2.1, SVG Export Plug-In . SVG Version: 9.03 Build 55982)  -->
<svg version="1.1" id="Capa_1" xmlns="http://www.w3.org/2000/svg" xmlns:xlink="http://www.w3.org/1999/xlink" x="0px" y="0px"
	 viewBox="0 0 110 135" style="enable-background:new 0 0 110 135;" xml:space="preserve">
<g shape-rendering="auto">
	<path color-rendering="auto" image-rendering="auto" d="M44.157,66.805c-0.368-0.005-0.671,0.289-0.676,0.657
		c-0.005,0.368,0.289,0.671,0.657,0.676c0.006,0,0.013,0,0.019,0h22.648c0.368,0.005,0.671-0.289,0.676-0.657
		c0.005-0.368-0.289-0.671-0.657-0.676c-0.006,0-0.013,0-0.019,0H44.157z"/>
	<path color-rendering="auto" image-rendering="auto" d="M44.157,60.138c-0.368-0.005-0.671,0.289-0.676,0.657
		s0.289,0.671,0.657,0.676c0.006,0,0.013,0,0.019,0h22.648c0.368,0.005,0.671-0.289,0.676-0.657
		c0.005-0.368-0.289-0.671-0.657-0.676c-0.006,0-0.013,0-0.019,0H44.157z"/>
	<path color-rendering="auto" image-rendering="auto" d="M44.157,73.471c-0.368-0.005-0.671,0.289-0.676,0.657
		c-0.005,0.368,0.289,0.671,0.657,0.676c0.006,0,0.013,0,0.019,0h22.648c0.368,0.005,0.671-0.289,0.676-0.657
		c0.005-0.368-0.289-0.671-0.657-0.676c-0.006,0-0.013,0-0.019,0H44.157z"/>
</g>
</svg>
