<?xml version="1.0" encoding="iso-8859-1"?>
<!-- Generator: Adobe Illustrator 29.2.1, SVG Export Plug-In . SVG Version: 9.03 Build 55982)  -->
<svg version="1.1" id="Capa_1" xmlns="http://www.w3.org/2000/svg" xmlns:xlink="http://www.w3.org/1999/xlink" x="0px" y="0px"
	 viewBox="0 0 110 135" style="enable-background:new 0 0 110 135;" xml:space="preserve">
<path d="M55.469,79.621h-1.641c-0.742,0-1.344-0.602-1.344-1.344v-1.226c0-0.063-0.042-0.115-0.101-0.129
	c-0.956-0.23-1.869-0.61-2.71-1.121c-0.051-0.032-0.119-0.024-0.162,0.018l-0.869,0.869c-0.253,0.253-0.594,0.394-0.95,0.394
	c-0.358,0-0.699-0.141-0.952-0.394l-1.16-1.16h0.002c-0.525-0.525-0.525-1.376,0-1.899l0.869-0.869l-0.002-0.002
	c0.044-0.042,0.053-0.111,0.018-0.162c-0.509-0.841-0.885-1.754-1.115-2.71c-0.014-0.059-0.067-0.099-0.127-0.101h-1.235
	c-0.742,0-1.342-0.6-1.342-1.342l-0.002-1.641c0.002-0.742,0.602-1.344,1.344-1.344h1.228c0.063,0,0.115-0.042,0.129-0.101
	c0.23-0.956,0.61-1.869,1.121-2.71c0.032-0.051,0.024-0.119-0.018-0.162l-0.869-0.869c-0.523-0.525-0.523-1.376,0-1.901l1.16-1.16
	c0.253-0.251,0.594-0.394,0.95-0.394c0.358,0,0.699,0.143,0.95,0.394l0.869,0.869h0.002c0.042,0.044,0.109,0.051,0.162,0.018
	c0.839-0.511,1.754-0.889,2.71-1.121c0.059-0.014,0.099-0.067,0.101-0.127v-1.224c0-0.742,0.6-1.342,1.342-1.344h1.641
	c0.744,0.002,1.344,0.602,1.346,1.344v1.228c0,0.061,0.04,0.113,0.101,0.127c0.954,0.232,1.869,0.61,2.708,1.123v-0.002
	c0.053,0.032,0.119,0.026,0.162-0.016l0.869-0.869h0.002c0.251-0.255,0.592-0.396,0.95-0.396c0.356,0,0.699,0.141,0.95,0.396
	l1.16,1.16v-0.002c0.523,0.525,0.523,1.376,0,1.901l-0.869,0.869c-0.042,0.042-0.051,0.111-0.018,0.162
	c0.511,0.839,0.889,1.75,1.119,2.703c0.014,0.059,0.067,0.101,0.129,0.101h1.228c0.742,0,1.342,0.602,1.342,1.344v1.641h0.002
	c-0.002,0.742-0.602,1.342-1.344,1.344h-1.228c-0.063,0-0.115,0.042-0.129,0.101c-0.23,0.956-0.61,1.869-1.121,2.71
	c-0.032,0.051-0.024,0.117,0.018,0.162l0.869,0.869c0.523,0.525,0.523,1.376,0,1.901l-1.16,1.16
	c-0.253,0.251-0.594,0.394-0.95,0.394c-0.358,0-0.699-0.143-0.95-0.394l-0.869-0.869h-0.002c-0.042-0.044-0.111-0.053-0.162-0.018
	c-0.841,0.511-1.754,0.889-2.71,1.121c-0.059,0.014-0.099,0.067-0.101,0.127v1.228C56.811,79.019,56.211,79.621,55.469,79.621
	L55.469,79.621z M49.61,74.57c0.249,0.002,0.491,0.073,0.701,0.202c0.731,0.449,1.53,0.778,2.362,0.98
	c0.604,0.145,1.028,0.685,1.026,1.305v1.22c0,0.073,0.061,0.131,0.133,0.131h1.641h-0.002c0.073,0,0.133-0.059,0.131-0.131v-1.226
	c0-0.622,0.424-1.162,1.026-1.307c0.834-0.202,1.633-0.531,2.364-0.98c0.529-0.323,1.212-0.242,1.651,0.198l0.869,0.869
	c0.053,0.051,0.135,0.051,0.188,0l1.16-1.16c0.048-0.053,0.048-0.135,0-0.186l-0.869-0.869H61.99
	c-0.438-0.44-0.521-1.123-0.196-1.653v0.002c0.447-0.733,0.778-1.53,0.98-2.364c0.145-0.602,0.685-1.028,1.305-1.026h1.228
	c0.073,0,0.131-0.059,0.131-0.131v-1.641c0-0.073-0.059-0.131-0.131-0.131h-1.23c-0.62,0.002-1.162-0.424-1.305-1.026
	c-0.204-0.834-0.535-1.631-0.982-2.362v-0.002c-0.323-0.527-0.242-1.21,0.198-1.651l0.869-0.869c0.051-0.051,0.051-0.133,0-0.186
	l-1.16-1.16c-0.024-0.024-0.059-0.038-0.093-0.038c-0.036,0-0.069,0.014-0.093,0.038l-0.869,0.869H60.64
	c-0.436,0.438-1.117,0.519-1.647,0.198c-0.731-0.447-1.53-0.778-2.364-0.982v0.002c-0.602-0.145-1.026-0.687-1.026-1.305v-1.226
	c0-0.073-0.059-0.131-0.129-0.131h-1.645c-0.073,0-0.131,0.059-0.131,0.131V58.2c0.002,0.62-0.424,1.16-1.026,1.305
	c-0.834,0.202-1.631,0.533-2.362,0.98h-0.002c-0.527,0.325-1.21,0.242-1.651-0.196l-0.869-0.869v-0.002
	c-0.024-0.024-0.057-0.036-0.093-0.038c-0.034,0-0.067,0.014-0.093,0.038l-1.16,1.16c-0.051,0.053-0.051,0.135,0,0.188l0.869,0.869
	c0.44,0.438,0.521,1.121,0.198,1.651c-0.447,0.731-0.778,1.53-0.982,2.362c-0.145,0.602-0.685,1.024-1.305,1.022h-1.228
	c-0.071,0-0.129,0.059-0.129,0.131v1.641h-0.002c0,0.073,0.061,0.131,0.131,0.131h1.228c0.62-0.002,1.162,0.424,1.305,1.026
	c0.204,0.834,0.535,1.631,0.982,2.364c0.323,0.527,0.242,1.21-0.198,1.649l-0.869,0.869c-0.051,0.053-0.051,0.135,0,0.186l1.16,1.16
	v0.002c0.053,0.051,0.135,0.051,0.186,0l0.869-0.869v-0.002c0.253-0.251,0.594-0.392,0.95-0.39L49.61,74.57z"/>
<path d="M54.643,73.476c-1.584-0.004-3.097-0.649-4.199-1.786c-1.101-1.14-1.693-2.675-1.645-4.257
	c0.105-3.079,2.578-5.552,5.658-5.658c1.618-0.051,3.184,0.57,4.328,1.713c1.144,1.144,1.764,2.71,1.713,4.326
	c-0.105,3.079-2.574,5.55-5.652,5.658C54.772,73.474,54.703,73.476,54.643,73.476L54.643,73.476z M54.649,62.99h-0.158h0.002
	c-2.439,0.087-4.395,2.043-4.482,4.48c-0.04,1.283,0.451,2.524,1.358,3.431c0.907,0.907,2.15,1.4,3.431,1.358
	c2.435-0.089,4.387-2.041,4.477-4.473c0.04-1.257-0.428-2.475-1.303-3.378c-0.873-0.905-2.075-1.414-3.332-1.416L54.649,62.99z"/>
</svg>
