<?xml version="1.0" encoding="iso-8859-1"?>
<!-- Generator: Adobe Illustrator 29.2.1, SVG Export Plug-In . SVG Version: 9.03 Build 55982)  -->
<svg version="1.1" id="Capa_1" xmlns="http://www.w3.org/2000/svg" xmlns:xlink="http://www.w3.org/1999/xlink" x="0px" y="0px"
	 viewBox="0 0 110 135" style="enable-background:new 0 0 110 135;" xml:space="preserve">
<path d="M50.102,67.057c0,0.229-0.185,0.414-0.414,0.414h-2.897c-0.229,0-0.414-0.185-0.414-0.414s0.185-0.414,0.414-0.414h2.897
	C49.917,66.643,50.102,66.829,50.102,67.057z M60.447,63.333h-2.069c-0.229,0-0.414,0.185-0.414,0.414s0.185,0.414,0.414,0.414
	h2.069c0.229,0,0.414-0.185,0.414-0.414S60.675,63.333,60.447,63.333z M62.516,61.678h-4.138c-0.229,0-0.414,0.185-0.414,0.414
	s0.185,0.414,0.414,0.414h4.138c0.229,0,0.414-0.185,0.414-0.414S62.744,61.678,62.516,61.678z M58.791,74.092h-2.897
	c-0.229,0-0.414,0.185-0.414,0.414s0.185,0.414,0.414,0.414h2.897c0.229,0,0.414-0.185,0.414-0.414S59.02,74.092,58.791,74.092z
	 M67.481,67.471c0,6.617-5.383,12-12,12s-12-5.383-12-12s5.383-12,12-12S67.481,60.855,67.481,67.471z M55.895,67.057h10.748
	c-0.214-5.832-4.917-10.534-10.748-10.748V67.057z M48.331,76.048l6.737-8.718V56.309c-5.969,0.218-10.759,5.14-10.759,11.162
	C44.309,70.914,45.875,73.997,48.331,76.048L48.331,76.048z M66.643,67.885H55.684l-6.697,8.668
	c1.831,1.314,4.073,2.091,6.494,2.091C61.503,78.644,66.424,73.854,66.643,67.885L66.643,67.885z M55.481,72.851
	c0,0.229,0.185,0.414,0.414,0.414h5.793c0.229,0,0.414-0.185,0.414-0.414s-0.185-0.414-0.414-0.414h-5.793
	C55.666,72.437,55.481,72.622,55.481,72.851z M52.584,64.988h-5.793c-0.229,0-0.414,0.185-0.414,0.414s0.185,0.414,0.414,0.414
	h5.793c0.229,0,0.414-0.185,0.414-0.414S52.813,64.988,52.584,64.988z M52.584,63.333h-5.793c-0.229,0-0.414,0.185-0.414,0.414
	s0.185,0.414,0.414,0.414h5.793c0.229,0,0.414-0.185,0.414-0.414S52.813,63.333,52.584,63.333z"/>
</svg>
