<?xml version="1.0" encoding="iso-8859-1"?>
<!-- Generator: Adobe Illustrator 29.2.1, SVG Export Plug-In . SVG Version: 9.03 Build 55982)  -->
<svg version="1.1" id="Capa_1" xmlns="http://www.w3.org/2000/svg" xmlns:xlink="http://www.w3.org/1999/xlink" x="0px" y="0px"
	 viewBox="0 0 110 135" style="enable-background:new 0 0 110 135;" xml:space="preserve">
<g>
	<path d="M65.348,76.271c0,0.593-0.474,1.067-1.067,1.067h-17.6c-0.593,0-1.067-0.474-1.067-1.067v-17.6
		c0-0.593,0.474-1.067,1.067-1.067h6.933v-2.133h-6.933c-1.778,0-3.2,1.422-3.2,3.2v17.6c0,1.778,1.422,3.2,3.2,3.2h17.6
		c1.778,0,3.2-1.422,3.2-3.2v-6.933h-2.133V76.271z"/>
	<polygon points="57.348,55.471 57.348,57.605 63.837,57.605 55.451,65.99 56.963,67.501 65.348,59.116 65.348,65.605 
		67.481,65.605 67.481,55.471 	"/>
</g>
</svg>
