<?xml version="1.0" encoding="iso-8859-1"?>
<!-- Generator: Adobe Illustrator 29.2.1, SVG Export Plug-In . SVG Version: 9.03 Build 55982)  -->
<svg version="1.1" id="Capa_1" xmlns="http://www.w3.org/2000/svg" xmlns:xlink="http://www.w3.org/1999/xlink" x="0px" y="0px"
	 viewBox="0 0 110 135" style="enable-background:new 0 0 110 135;" xml:space="preserve">
<path d="M64.912,76.9c0.002,0.911-0.647,1.694-1.543,1.859c-2.602,0.473-5.241,0.711-7.886,0.713
	c-2.642-0.001-5.28-0.238-7.879-0.709c-0.9-0.163-1.553-0.948-1.549-1.862c0.002-2.273,0.906-4.451,2.514-6.058
	c1.607-1.607,3.785-2.511,6.058-2.514h1.714c2.273,0.002,4.451,0.906,6.058,2.514C64.005,72.449,64.909,74.627,64.912,76.9
	L64.912,76.9z M55.483,67.471c1.591,0,3.118-0.632,4.243-1.757c1.125-1.125,1.757-2.652,1.757-4.243
	c0-1.591-0.632-3.118-1.757-4.243c-1.125-1.125-2.652-1.757-4.243-1.757s-3.118,0.632-4.243,1.757s-1.757,2.652-1.757,4.243
	c0.002,1.591,0.634,3.116,1.759,4.241C52.367,66.837,53.892,67.469,55.483,67.471L55.483,67.471z"/>
</svg>
