<?xml version="1.0" encoding="iso-8859-1"?>
<!-- Generator: Adobe Illustrator 29.2.1, SVG Export Plug-In . SVG Version: 9.03 Build 55982)  -->
<svg version="1.1" id="Capa_1" xmlns="http://www.w3.org/2000/svg" xmlns:xlink="http://www.w3.org/1999/xlink" x="0px" y="0px"
	 viewBox="0 0 110 135" style="enable-background:new 0 0 110 135;" xml:space="preserve">
<path style="stroke:#000000;stroke-miterlimit:10;" d="M67.447,57.563c-0.064-0.131-0.195-0.22-0.344-0.22H43.862
	c-0.148,0-0.28,0.084-0.344,0.22c-0.064,0.131-0.041,0.292,0.052,0.405l9.208,11.048v6.464c0,0.156,0.1,0.3,0.248,0.356l4.648,1.741
	c0.044,0.016,0.087,0.023,0.131,0.023c0.077,0,0.152-0.023,0.216-0.069c0.105-0.072,0.164-0.188,0.164-0.312v-8.2l9.208-11.048
	c0.095-0.112,0.116-0.272,0.052-0.405L67.447,57.563z M57.515,68.635c-0.056,0.069-0.088,0.156-0.088,0.244v7.788l-3.888-1.452
	v-6.336c0-0.088-0.031-0.177-0.088-0.244l-8.776-10.531h21.616L57.515,68.635z"/>
</svg>
