<?xml version="1.0" encoding="iso-8859-1"?>
<!-- Generator: Adobe Illustrator 29.2.1, SVG Export Plug-In . SVG Version: 9.03 Build 55982)  -->
<svg version="1.1" id="Capa_1" xmlns="http://www.w3.org/2000/svg" xmlns:xlink="http://www.w3.org/1999/xlink" x="0px" y="0px"
	 viewBox="0 0 110 135" style="enable-background:new 0 0 110 135;" xml:space="preserve">
<path style="fill-rule:evenodd;clip-rule:evenodd;" d="M50.65,67.471l-6.082,6.082c-0.675,0.675-1.013,1.562-1.013,2.45
	s0.338,1.774,1.013,2.45l0.006,0.006c0.675,0.675,1.562,1.013,2.45,1.013s1.774-0.338,2.45-1.013l6.008-6.008l6.008,6.008
	c0.675,0.675,1.562,1.013,2.45,1.013c0.887,0,1.774-0.338,2.45-1.013l0.006-0.006c0.675-0.675,1.013-1.562,1.013-2.45
	s-0.338-1.774-1.013-2.45l-6.082-6.082l6.082-6.082c0.675-0.675,1.013-1.562,1.013-2.45c0-0.887-0.338-1.774-1.013-2.45
	l-0.006-0.006c-0.675-0.675-1.562-1.013-2.45-1.013c-0.887,0-1.774,0.338-2.45,1.013l-6.008,6.008l-6.008-6.008
	c-0.675-0.675-1.562-1.013-2.45-1.013c-0.887,0-1.774,0.338-2.45,1.013l-0.006,0.006c-0.675,0.675-1.013,1.562-1.013,2.45
	c0,0.887,0.338,1.774,1.013,2.45L50.65,67.471z M45.657,60.302l6.625,6.625c0.3,0.3,0.3,0.787,0,1.089l-6.625,6.623
	c-0.374,0.374-0.561,0.867-0.561,1.361c0,0.493,0.188,0.987,0.561,1.361l0.006,0.006c0.374,0.374,0.867,0.561,1.361,0.561
	s0.987-0.188,1.361-0.561l6.552-6.552c0.3-0.3,0.787-0.3,1.089,0l6.552,6.552c0.374,0.374,0.867,0.561,1.361,0.561
	s0.987-0.188,1.361-0.561l0.006-0.006c0.374-0.374,0.561-0.867,0.561-1.361c0-0.493-0.188-0.987-0.561-1.361l-6.623-6.625
	c-0.3-0.3-0.3-0.787,0-1.089l6.625-6.623c0.374-0.374,0.561-0.867,0.561-1.361c0-0.493-0.188-0.987-0.561-1.361L65.3,57.575
	c-0.374-0.374-0.867-0.561-1.361-0.561s-0.987,0.188-1.361,0.561l-6.553,6.549c-0.3,0.3-0.787,0.3-1.089,0l-6.549-6.552
	c-0.374-0.374-0.867-0.561-1.361-0.561s-0.987,0.188-1.361,0.561l-0.006,0.006c-0.374,0.374-0.561,0.867-0.561,1.361
	C45.096,59.433,45.282,59.927,45.657,60.302L45.657,60.302z"/>
</svg>
