<?xml version="1.0" encoding="iso-8859-1"?>
<!-- Generator: Adobe Illustrator 29.2.1, SVG Export Plug-In . SVG Version: 9.03 Build 55982)  -->
<svg version="1.1" id="Capa_1" xmlns="http://www.w3.org/2000/svg" xmlns:xlink="http://www.w3.org/1999/xlink" x="0px" y="0px"
	 viewBox="0 0 110 135" style="enable-background:new 0 0 110 135;" xml:space="preserve">
<path d="M54.981,56.535c-2.758-0.003-5.422,1.015-7.475,2.859c-2.052,1.844-3.349,4.382-3.64,7.126
	c-0.292,2.744,0.444,5.499,2.063,7.732l-3.053,3.101c-0.259,0.26-0.336,0.652-0.193,0.99c0.138,0.338,0.467,0.558,0.833,0.556
	h12.069c0.092,0.018,0.186,0.018,0.277,0c3.995-0.157,7.602-2.435,9.464-5.973c1.861-3.538,1.693-7.8-0.44-11.182
	C62.752,58.364,58.977,56.378,54.981,56.535L54.981,56.535z M55.501,77.052h-9.823l2.111-2.111c0.308-0.344,0.308-0.863,0-1.207
	c-1.831-2.161-2.583-5.036-2.046-7.817c0.536-2.781,2.305-5.169,4.809-6.493c2.504-1.325,5.473-1.445,8.074-0.325
	c2.601,1.121,4.555,3.359,5.313,6.089c0.758,2.73,0.238,5.655-1.413,7.956c-1.652,2.301-4.258,3.73-7.085,3.885L55.501,77.052z
	 M55.886,62.448v6.035c0,0.5-0.405,0.905-0.905,0.905c-0.499,0-0.905-0.405-0.905-0.905v-6.034c0-0.5,0.406-0.905,0.905-0.905
	c0.5,0,0.905,0.405,0.905,0.905V62.448z M55.886,72.103v0.001c0,0.367-0.221,0.697-0.559,0.836c-0.337,0.14-0.728,0.063-0.985-0.196
	c-0.259-0.259-0.337-0.648-0.197-0.987c0.14-0.338,0.471-0.559,0.836-0.559c0.489,0.007,0.886,0.394,0.905,0.881V72.103z"/>
</svg>
