<?xml version="1.0" encoding="iso-8859-1"?>
<!-- Generator: Adobe Illustrator 29.2.1, SVG Export Plug-In . SVG Version: 9.03 Build 55982)  -->
<svg version="1.1" id="Capa_1" xmlns="http://www.w3.org/2000/svg" xmlns:xlink="http://www.w3.org/1999/xlink" x="0px" y="0px"
	 viewBox="0 0 110 135" style="enable-background:new 0 0 110 135;" xml:space="preserve">
<path d="M66.558,72.702H56.306c-0.277-1.407-1.192-2.604-2.477-3.24c-1.287-0.635-2.793-0.635-4.08,0
	c-1.285,0.636-2.2,1.833-2.477,3.24h-2.867c-0.51,0-0.923,0.414-0.923,0.923c0,0.51,0.413,0.923,0.923,0.923h2.867
	c0.277,1.408,1.192,2.605,2.477,3.241c1.287,0.635,2.793,0.635,4.08,0c1.285-0.636,2.2-1.833,2.477-3.241h10.252
	c0.51,0,0.923-0.413,0.923-0.923C67.481,73.116,67.068,72.702,66.558,72.702z M51.789,76.394c-1.12,0-2.13-0.674-2.558-1.709
	c-0.429-1.035-0.192-2.226,0.6-3.019c0.792-0.792,1.983-1.028,3.017-0.6c1.035,0.428,1.71,1.439,1.71,2.558
	C54.558,75.155,53.318,76.394,51.789,76.394L51.789,76.394z M44.404,62.241h10.252c0.277,1.407,1.192,2.604,2.477,3.24
	c1.287,0.635,2.793,0.635,4.08,0c1.285-0.636,2.2-1.833,2.477-3.24h2.867c0.51,0,0.923-0.414,0.923-0.923
	c0-0.51-0.413-0.923-0.923-0.923h-2.867c-0.277-1.408-1.192-2.605-2.477-3.241c-1.287-0.635-2.793-0.635-4.08,0
	c-1.285,0.636-2.2,1.833-2.477,3.241H44.404c-0.51,0-0.923,0.413-0.923,0.923C43.481,61.827,43.894,62.241,44.404,62.241z
	 M59.173,58.548c1.12,0,2.13,0.674,2.558,1.709c0.429,1.035,0.192,2.226-0.6,3.019c-0.792,0.792-1.983,1.028-3.017,0.6
	c-1.035-0.428-1.71-1.439-1.71-2.558C56.404,59.788,57.645,58.549,59.173,58.548L59.173,58.548z"/>
</svg>
