<?xml version="1.0" encoding="iso-8859-1"?>
<!-- Generator: Adobe Illustrator 29.2.1, SVG Export Plug-In . SVG Version: 9.03 Build 55982)  -->
<svg version="1.1" id="Capa_1" xmlns="http://www.w3.org/2000/svg" xmlns:xlink="http://www.w3.org/1999/xlink" x="0px" y="0px"
	 viewBox="0 0 110 135" style="enable-background:new 0 0 110 135;" xml:space="preserve">
<path style="fill-rule:evenodd;clip-rule:evenodd;" d="M55.481,67.303c-0.775,0-1.477,0.314-1.985,0.822
	c-0.508,0.508-0.822,1.211-0.822,1.985c0,0.531,0.15,1.029,0.409,1.458l0.002-0.002c0.192,0.316,0.443,0.589,0.739,0.806v2.631
	c0,0.457,0.187,0.872,0.487,1.172c0.3,0.3,0.715,0.487,1.172,0.487c0.457,0,0.872-0.187,1.172-0.487
	c0.3-0.3,0.487-0.715,0.487-1.172v-2.631c0.296-0.217,0.549-0.492,0.739-0.806c0.259-0.427,0.409-0.926,0.409-1.458
	c0-0.775-0.314-1.477-0.822-1.985C56.958,67.617,56.256,67.303,55.481,67.303L55.481,67.303z M56.505,69.087
	c-0.261-0.263-0.623-0.425-1.023-0.425s-0.762,0.162-1.023,0.424c-0.263,0.263-0.424,0.625-0.424,1.023
	c0,0.277,0.076,0.535,0.208,0.75h-0.002l0.002,0.002c0.131,0.214,0.316,0.392,0.538,0.515c0.238,0.106,0.404,0.344,0.404,0.621V75
	c0,0.081,0.034,0.157,0.088,0.21c0.055,0.055,0.129,0.088,0.21,0.088c0.081,0,0.157-0.034,0.21-0.088
	c0.055-0.055,0.088-0.129,0.088-0.21v-3.003h0.002c0-0.245,0.134-0.482,0.367-0.602c0.236-0.122,0.434-0.309,0.573-0.536
	c0.132-0.217,0.208-0.473,0.208-0.75C56.93,69.71,56.767,69.348,56.505,69.087L56.505,69.087z M60.759,64.495v-3.831
	c0-1.053-0.432-2.01-1.126-2.705c-0.695-0.695-1.653-1.126-2.705-1.126h-2.894c-1.053,0-2.01,0.429-2.703,1.121
	c-0.695,0.694-1.128,1.648-1.131,2.696v3.843h10.559V64.495z M48.846,64.553c-0.806,0.143-1.53,0.533-2.087,1.091
	c-0.709,0.709-1.149,1.687-1.149,2.765v7.148c0,1.076,0.439,2.056,1.149,2.765c0.709,0.709,1.687,1.149,2.765,1.149h11.914
	c1.076,0,2.056-0.439,2.763-1.149c0.709-0.709,1.149-1.687,1.149-2.765l0.002-7.148c0-1.076-0.441-2.056-1.149-2.765
	c-0.556-0.556-1.279-0.948-2.084-1.091v-3.891c0-1.428-0.584-2.726-1.525-3.667c-0.941-0.941-2.237-1.525-3.667-1.525h-2.894
	c-1.424,0-2.719,0.582-3.658,1.519c-0.941,0.937-1.525,2.232-1.528,3.658L48.846,64.553z M49.524,78.111h11.914
	c0.702,0,1.339-0.288,1.803-0.752c0.464-0.464,0.752-1.103,0.752-1.803v-7.146c0-0.702-0.288-1.341-0.752-1.803
	c-0.462-0.462-1.101-0.752-1.803-0.752H49.524c-0.702,0-1.339,0.288-1.803,0.752c-0.464,0.464-0.752,1.101-0.752,1.803v7.148
	c0,0.702,0.288,1.339,0.752,1.803C48.185,77.823,48.822,78.111,49.524,78.111L49.524,78.111z"/>
</svg>
