<svg xmlns="http://www.w3.org/2000/svg" viewBox="39.96 52.08 31.05 31.05" fill="currentColor" aria-hidden="true"><path d="M46.146,55.471c-1.471,0-2.666,1.196-2.666,2.666c0,1.471,1.196,2.666,2.666,2.666c1.471,0,2.666-1.196,2.666-2.666
	S47.617,55.471,46.146,55.471z M46.146,59.471c-0.735,0-1.334-0.599-1.334-1.334s0.599-1.334,1.334-1.334
	c0.735,0,1.334,0.599,1.334,1.334S46.881,59.471,46.146,59.471z"/>
<path d="M46.146,64.805c-1.471,0-2.666,1.196-2.666,2.666s1.196,2.666,2.666,2.666c1.471,0,2.666-1.196,2.666-2.666
	C48.813,66,47.617,64.805,46.146,64.805z M46.146,68.806c-0.735,0-1.334-0.599-1.334-1.334s0.599-1.334,1.334-1.334
	c0.735,0,1.334,0.599,1.334,1.334S46.881,68.806,46.146,68.806z"/>
<path d="M46.146,74.138c-1.471,0-2.666,1.196-2.666,2.666s1.196,2.666,2.666,2.666c1.471,0,2.666-1.196,2.666-2.666
	C48.813,75.336,47.617,74.138,46.146,74.138z M46.146,78.139c-0.735,0-1.334-0.598-1.334-1.334c0-0.736,0.599-1.334,1.334-1.334
	c0.735,0.001,1.334,0.599,1.334,1.335C47.479,77.541,46.881,78.139,46.146,78.139z"/>
<path d="M52.146,58.805h14.667c0.369,0,0.666-0.299,0.666-0.666c0-0.369-0.299-0.666-0.666-0.666l-14.667-0.001
	c-0.369,0-0.666,0.299-0.666,0.666C51.48,58.506,51.778,58.805,52.146,58.805z"/>
<path d="M66.814,66.806H52.146c-0.369,0-0.666,0.299-0.666,0.666c0,0.369,0.299,0.666,0.666,0.666h14.667
	c0.369,0,0.666-0.299,0.666-0.666C67.48,67.103,67.182,66.806,66.814,66.806L66.814,66.806z"/>
<path d="M66.814,76.139H52.146c-0.369,0-0.666,0.299-0.666,0.666c0,0.369,0.299,0.666,0.666,0.666h14.667
	c0.369,0,0.666-0.299,0.666-0.666C67.48,76.437,67.182,76.139,66.814,76.139L66.814,76.139z"/></svg>
