<svg xmlns="http://www.w3.org/2000/svg" viewBox="40.11 52.24 30.74 30.74" fill="currentColor" aria-hidden="true"><g transform="translate(0,-952.36218)">
	<path d="M45.767,1011.262c-1.256,0-2.286,1.029-2.286,2.286v12.571c0,1.256,1.029,2.286,2.286,2.286h19.429
		c1.256,0,2.286-1.029,2.286-2.286v-12.571c0-1.256-1.029-2.286-2.286-2.286H45.767z M45.767,1012.405h19.429
		c0.161,0,0.309,0.032,0.446,0.089l-9.339,8.116c-0.52,0.452-1.142,0.452-1.661,0l-9.321-8.116
		C45.458,1012.437,45.606,1012.405,45.767,1012.405z M44.642,1013.423l9.25,8.045c0.91,0.791,2.251,0.79,3.161,0l9.268-8.045
		c0.004,0.042,0.018,0.082,0.018,0.125v12.571c0,0.643-0.5,1.143-1.143,1.143H45.767c-0.643,0-1.143-0.5-1.143-1.143v-12.571
		C44.624,1013.504,44.637,1013.465,44.642,1013.423z"/>
</g></svg>
