<svg xmlns="http://www.w3.org/2000/svg" viewBox="40.11 52.24 30.74 30.74" fill="currentColor" aria-hidden="true"><path d="M66.215,57.41H44.749c-0.7,0.001-1.267,0.568-1.268,1.268l0,5.739c0,0,0,0,0,0v7.777c0.001,0.7,0.568,1.267,1.268,1.268
	h21.464c0.7-0.001,1.267-0.568,1.268-1.268V58.678C67.48,57.979,66.914,57.412,66.215,57.41z M66.908,72.195
	c-0.001,0.382-0.31,0.692-0.692,0.694H44.749c-0.383-0.001-0.693-0.311-0.694-0.694V64.45c0,0,0,0,0,0l0-5.772
	c0-0.382,0.311-0.693,0.694-0.694h21.464c0.383,0,0.694,0.311,0.694,0.694V72.195z"/>
<path d="M59.771,75.604h-8.579c-0.159,0-0.287-0.128-0.287-0.287v-2.169c0-0.158,0.128-0.287,0.287-0.287h8.579
	c0.159,0,0.287,0.129,0.287,0.287v2.169C60.058,75.476,59.929,75.604,59.771,75.604z M51.478,75.031h8.006v-1.595h-8.005
	L51.478,75.031z"/>
<path d="M60.969,77.532H49.994c-0.455-0.001-0.822-0.37-0.823-0.824v-0.853c0.001-0.455,0.369-0.823,0.824-0.824h10.974
	c0.455,0.001,0.822,0.37,0.823,0.824v0.853C61.791,77.162,61.424,77.531,60.969,77.532L60.969,77.532z M49.994,75.604
	c-0.139,0-0.251,0.113-0.251,0.251v0.853c0,0.138,0.113,0.251,0.251,0.251h10.975c0.139,0,0.251-0.113,0.251-0.251v-0.853
	c-0.001-0.138-0.113-0.251-0.251-0.251H49.994z"/>
<path d="M55.87,71.114h-0.776c-0.351,0-0.636-0.285-0.636-0.636v-0.58c0-0.03-0.02-0.055-0.048-0.061
	c-0.452-0.109-0.884-0.289-1.282-0.531c-0.024-0.015-0.056-0.011-0.076,0.009l-0.411,0.411c-0.12,0.12-0.281,0.186-0.449,0.186
	c-0.169,0-0.331-0.067-0.45-0.186l-0.549-0.549h0.001c-0.249-0.249-0.249-0.651,0-0.899l0.411-0.411l-0.001-0.001
	c0.021-0.02,0.025-0.053,0.009-0.076c-0.241-0.398-0.419-0.83-0.528-1.282c-0.007-0.028-0.032-0.047-0.06-0.048h-0.584
	c-0.351,0-0.635-0.284-0.635-0.635l-0.001-0.776c0.001-0.351,0.285-0.636,0.636-0.636h0.581c0.03,0,0.055-0.02,0.061-0.048
	c0.109-0.452,0.289-0.884,0.531-1.282c0.015-0.024,0.011-0.056-0.009-0.076l-0.411-0.411c-0.248-0.249-0.248-0.651,0-0.9
	l0.549-0.549c0.12-0.119,0.281-0.186,0.449-0.186c0.169,0,0.331,0.068,0.449,0.186l0.411,0.411h0.001
	c0.02,0.021,0.052,0.024,0.076,0.009c0.397-0.242,0.83-0.421,1.282-0.531c0.028-0.007,0.047-0.032,0.048-0.06v-0.579
	c0-0.351,0.284-0.635,0.635-0.636h0.776c0.352,0.001,0.636,0.285,0.637,0.636v0.581c0,0.029,0.019,0.054,0.048,0.06
	c0.451,0.11,0.884,0.289,1.281,0.532v-0.001c0.025,0.015,0.056,0.012,0.076-0.008l0.411-0.411h0.001
	c0.119-0.12,0.28-0.187,0.449-0.187c0.168,0,0.331,0.067,0.449,0.187l0.549,0.549v-0.001c0.248,0.249,0.248,0.651,0,0.9
	l-0.411,0.411c-0.02,0.02-0.024,0.053-0.009,0.076c0.242,0.397,0.421,0.828,0.53,1.279c0.007,0.028,0.032,0.048,0.061,0.048h0.581
	c0.351,0,0.635,0.285,0.635,0.636v0.776h0.001c-0.001,0.351-0.285,0.635-0.636,0.636h-0.581c-0.03,0-0.055,0.02-0.061,0.048
	c-0.109,0.452-0.289,0.884-0.531,1.282c-0.015,0.024-0.011,0.055,0.009,0.076l0.411,0.411c0.248,0.249,0.248,0.651,0,0.9
	l-0.549,0.549c-0.12,0.119-0.281,0.186-0.449,0.186c-0.169,0-0.331-0.068-0.449-0.186l-0.411-0.411h-0.001
	c-0.02-0.021-0.053-0.025-0.076-0.009c-0.398,0.242-0.83,0.421-1.282,0.531c-0.028,0.007-0.047,0.032-0.048,0.06v0.581
	C56.505,70.829,56.221,71.114,55.87,71.114L55.87,71.114z M53.097,68.724c0.118,0.001,0.232,0.034,0.332,0.096
	c0.346,0.212,0.724,0.368,1.118,0.464c0.286,0.069,0.487,0.324,0.486,0.618v0.578c0,0.034,0.029,0.062,0.063,0.062h0.776h-0.001
	c0.034,0,0.063-0.028,0.062-0.062v-0.58c0-0.294,0.201-0.55,0.486-0.619c0.395-0.096,0.773-0.251,1.119-0.464
	c0.251-0.153,0.574-0.115,0.781,0.094l0.411,0.411c0.025,0.024,0.064,0.024,0.089,0l0.549-0.549c0.023-0.025,0.023-0.064,0-0.088
	l-0.411-0.411h-0.001c-0.207-0.208-0.247-0.532-0.093-0.782v0.001c0.211-0.347,0.368-0.724,0.464-1.119
	c0.069-0.285,0.324-0.487,0.618-0.486h0.581c0.034,0,0.062-0.028,0.062-0.062v-0.776c0-0.034-0.028-0.062-0.062-0.062h-0.582
	c-0.294,0.001-0.55-0.201-0.618-0.486c-0.097-0.395-0.253-0.772-0.465-1.118v-0.001c-0.153-0.25-0.115-0.573,0.094-0.781
	l0.411-0.411c0.024-0.024,0.024-0.063,0-0.088l-0.549-0.549c-0.011-0.011-0.028-0.018-0.044-0.018c-0.017,0-0.033,0.007-0.044,0.018
	l-0.411,0.411h-0.001c-0.207,0.207-0.529,0.246-0.779,0.094c-0.346-0.211-0.724-0.368-1.119-0.465v0.001
	c-0.285-0.069-0.486-0.325-0.486-0.618v-0.58c0-0.034-0.028-0.062-0.061-0.062h-0.778c-0.034,0-0.062,0.028-0.062,0.062v0.581
	c0.001,0.294-0.201,0.549-0.486,0.618c-0.395,0.096-0.772,0.252-1.118,0.464h-0.001c-0.25,0.154-0.573,0.115-0.781-0.093
	l-0.411-0.411v-0.001c-0.011-0.011-0.027-0.017-0.044-0.018c-0.016,0-0.032,0.007-0.044,0.018l-0.549,0.549
	c-0.024,0.025-0.024,0.064,0,0.089l0.411,0.411c0.208,0.207,0.247,0.531,0.094,0.781c-0.211,0.346-0.368,0.724-0.465,1.118
	c-0.069,0.285-0.324,0.485-0.618,0.484h-0.581c-0.033,0-0.061,0.028-0.061,0.062v0.776h-0.001c0,0.034,0.029,0.062,0.062,0.062
	h0.581c0.294-0.001,0.55,0.201,0.618,0.486c0.097,0.395,0.253,0.772,0.465,1.119c0.153,0.25,0.115,0.573-0.094,0.78l-0.411,0.411
	c-0.024,0.025-0.024,0.064,0,0.088l0.549,0.549v0.001c0.025,0.024,0.064,0.024,0.088,0l0.411-0.411v-0.001
	c0.12-0.119,0.281-0.185,0.449-0.185L53.097,68.724z"/>
<path d="M55.481,68.204c-0.75-0.002-1.466-0.307-1.987-0.845c-0.521-0.539-0.801-1.266-0.778-2.015
	c0.05-1.457,1.22-2.627,2.677-2.677c0.766-0.024,1.507,0.27,2.048,0.811c0.541,0.541,0.835,1.282,0.811,2.047
	c-0.05,1.457-1.218,2.627-2.674,2.677C55.543,68.204,55.51,68.204,55.481,68.204L55.481,68.204z M55.484,63.242H55.41h0.001
	c-1.154,0.041-2.08,0.967-2.121,2.12c-0.019,0.607,0.213,1.194,0.643,1.624s1.017,0.663,1.624,0.643
	c1.152-0.042,2.076-0.966,2.119-2.117c0.019-0.595-0.203-1.171-0.617-1.599c-0.413-0.428-0.982-0.669-1.577-0.67L55.484,63.242z"/></svg>
