<svg xmlns="http://www.w3.org/2000/svg" viewBox="39.96 52.08 31.05 31.05" fill="currentColor" aria-hidden="true"><path style="fill-rule:evenodd;clip-rule:evenodd;" d="M64.773,64.205c0.07,0.067,0.121,0.141,0.155,0.218
	c0.032,0.074,0.047,0.162,0.047,0.263c0,0.099-0.016,0.187-0.047,0.263c-0.032,0.077-0.085,0.15-0.155,0.218l-6.58,6.336v-2.895
	h-0.002c0-0.375-0.297-0.685-0.674-0.697c-0.076-0.004-0.166-0.005-0.267-0.007c-2.931-0.056-5.244,0.868-6.866,2.627
	c-1.524,1.654-2.409,4.028-2.594,7.008c-1.133-2.027-1.694-4.077-1.73-6.001c-0.031-1.688,0.342-3.281,1.086-4.677
	c0.744-1.396,1.863-2.602,3.324-3.517c1.812-1.135,4.156-1.827,6.974-1.886c0.014,0.002,0.031,0.002,0.045,0.002
	c0.387,0,0.701-0.313,0.701-0.701v-2.895L64.773,64.205z M62.368,59.948l3.373,3.248c0.207,0.2,0.364,0.427,0.472,0.677
	c0.108,0.254,0.162,0.524,0.162,0.809s-0.054,0.555-0.162,0.809c-0.106,0.25-0.265,0.477-0.472,0.677l-7.727,7.448
	c-0.128,0.142-0.313,0.232-0.521,0.232c-0.387,0-0.701-0.313-0.701-0.701V69.3c-2.302,0.045-4.111,0.804-5.378,2.178
	c-1.369,1.486-2.139,3.71-2.25,6.551c-0.005,0.132-0.009,0.25-0.011,0.359c-0.005,0.258-0.092,0.497-0.24,0.686
	c-0.15,0.193-0.359,0.337-0.607,0.405c-0.247,0.068-0.499,0.052-0.724-0.034c-0.225-0.088-0.423-0.247-0.56-0.465
	c-1.551-2.477-2.313-5.026-2.358-7.419c-0.036-1.924,0.393-3.749,1.25-5.356c0.858-1.607,2.142-2.994,3.818-4.041
	c1.881-1.178,4.252-1.926,7.059-2.077V56.22h0.002c0-0.175,0.065-0.35,0.195-0.485c0.268-0.277,0.71-0.286,0.987-0.02L62.368,59.948
	z"/></svg>
