<svg xmlns="http://www.w3.org/2000/svg" viewBox="40.11 52.24 30.74 30.74" fill="currentColor" aria-hidden="true"><path style="fill-rule:evenodd;clip-rule:evenodd;" d="M56.899,68.149c-0.311,0-0.592,0.126-0.795,0.33
	c-0.203,0.203-0.33,0.485-0.33,0.795c0,0.311,0.126,0.592,0.33,0.795s0.485,0.33,0.795,0.33c0.311,0,0.592-0.126,0.795-0.33
	c0.203-0.203,0.33-0.485,0.33-0.795c0-0.311-0.126-0.592-0.33-0.795C57.492,68.273,57.21,68.149,56.899,68.149z M52.613,68.149
	c-0.311,0-0.592,0.126-0.795,0.33s-0.33,0.485-0.33,0.795c0,0.311,0.126,0.592,0.33,0.795c0.203,0.203,0.485,0.33,0.795,0.33
	c0.311,0,0.592-0.126,0.795-0.33c0.203-0.203,0.33-0.485,0.33-0.795c0-0.311-0.126-0.592-0.33-0.795
	C53.204,68.273,52.922,68.149,52.613,68.149z M48.325,68.149c-0.311,0-0.592,0.126-0.795,0.33c-0.203,0.203-0.33,0.485-0.33,0.795
	c0,0.311,0.126,0.592,0.33,0.795c0.203,0.203,0.485,0.33,0.795,0.33c0.311,0,0.592-0.126,0.795-0.33
	c0.203-0.203,0.33-0.485,0.33-0.795c0-0.311-0.126-0.592-0.33-0.795C48.917,68.273,48.635,68.149,48.325,68.149z M48.311,62.81
	h-1.526c-0.91,0-1.736,0.372-2.333,0.971c-0.599,0.599-0.971,1.425-0.971,2.333v11.227c0,0.31,0.086,0.601,0.245,0.853
	c0.158,0.249,0.383,0.452,0.661,0.588c0.28,0.136,0.581,0.185,0.872,0.152c0.293-0.033,0.575-0.148,0.819-0.341l3.588-2.855h8.769
	c0.91,0,1.736-0.372,2.333-0.971c0.599-0.599,0.971-1.425,0.971-2.333v-6.319c0-0.91-0.372-1.736-0.971-2.333l-0.055-0.055
	l-0.059-0.055l-0.059-0.051l-0.093-0.077l-0.031-0.024c-0.011-0.009-0.02-0.016-0.031-0.024l-0.062-0.048l-0.066-0.048l-0.132-0.088
	l-0.033-0.02l-0.139-0.081l-0.104-0.055l-0.037-0.018l-0.183-0.082l-0.115-0.044l-0.154-0.051L59.3,62.928l-0.04-0.011l-0.161-0.037
	l-0.121-0.022l-0.04-0.005c-0.013-0.002-0.027-0.004-0.04-0.005l-0.081-0.011l-0.042-0.004c-0.013-0.002-0.027-0.004-0.042-0.004
	l-0.084-0.007l-0.084-0.004c-0.015,0-0.027-0.002-0.042-0.002l-0.042-0.002h-0.042l-10.123-0.002h-0.004L48.311,62.81z
	 M63.419,72.068l1.324,1.053c0.256,0.203,0.553,0.326,0.863,0.361c0.308,0.035,0.623-0.018,0.919-0.161
	c0.295-0.143,0.533-0.357,0.698-0.619c0.167-0.266,0.258-0.573,0.258-0.899l-0.002-12.3c0-0.978-0.399-1.866-1.044-2.509
	c-0.643-0.643-1.533-1.044-2.509-1.044H51.162c-0.978,0-1.866,0.399-2.509,1.044c-0.643,0.643-1.044,1.533-1.044,2.509v1.19
	c0,0.39,0.317,0.705,0.705,0.705c0.39,0,0.705-0.317,0.705-0.705v-1.19c0-0.588,0.242-1.125,0.63-1.513
	c0.388-0.388,0.925-0.63,1.513-0.63h12.766c0.588,0,1.125,0.242,1.513,0.63c0.388,0.388,0.63,0.925,0.63,1.513v12.3
	c0,0.06-0.013,0.112-0.037,0.15c-0.026,0.04-0.066,0.075-0.119,0.101c-0.051,0.026-0.104,0.035-0.152,0.029
	c-0.048-0.005-0.095-0.026-0.141-0.062l-1.324-1.053c-0.304-0.242-0.747-0.192-0.989,0.114
	C63.065,71.383,63.115,71.826,63.419,72.068L63.419,72.068z M58.437,64.22h-11.65c-0.52,0-0.993,0.214-1.337,0.557
	c-0.342,0.344-0.557,0.817-0.557,1.337v11.227c0,0.044,0.009,0.079,0.024,0.104c0.016,0.027,0.046,0.051,0.082,0.07
	c0.037,0.018,0.073,0.024,0.106,0.02c0.031-0.004,0.064-0.018,0.097-0.044l3.749-2.984c0.125-0.114,0.291-0.181,0.473-0.181h9.013
	c0.52,0,0.993-0.214,1.337-0.557c0.342-0.344,0.557-0.817,0.557-1.337v-6.319c0-0.52-0.214-0.993-0.557-1.337l-0.049-0.049
	l-0.066-0.059l-0.073-0.059l-0.147-0.103l-0.02-0.013l-0.161-0.088l-0.081-0.037l-0.088-0.037l-0.11-0.037l-0.088-0.022
	l-0.071-0.016l-0.167-0.026l-0.071-0.005l-0.024-0.004l-0.048-0.004L58.437,64.22z"/></svg>
