<svg xmlns="http://www.w3.org/2000/svg" viewBox="40.11 52.24 30.74 30.74" fill="currentColor" aria-hidden="true"><path style="fill-rule:evenodd;clip-rule:evenodd;" d="M47.313,70.451c0.301,0.093,0.469,0.414,0.375,0.714
	c-0.093,0.301-0.414,0.469-0.714,0.375c-1.025-0.322-1.908-0.968-2.529-1.814c-0.607-0.828-0.965-1.848-0.965-2.949
	c0-1.379,0.56-2.627,1.462-3.531c0.904-0.904,2.152-1.462,3.531-1.462c0.237,0,0.475,0.018,0.712,0.052
	c0.034,0.004,0.07,0.01,0.104,0.016c0.347-1.278,1.079-2.398,2.066-3.228c1.115-0.941,2.554-1.508,4.124-1.508
	s3.01,0.567,4.127,1.506c0.987,0.83,1.719,1.95,2.066,3.228c0.034-0.006,0.07-0.01,0.104-0.016c0.237-0.034,0.475-0.052,0.712-0.052
	c1.379,0,2.627,0.56,3.531,1.462c0.904,0.904,1.462,2.152,1.462,3.531c0,1.101-0.358,2.121-0.965,2.949
	c-0.622,0.847-1.503,1.491-2.529,1.814c-0.301,0.093-0.62-0.074-0.714-0.375c-0.093-0.301,0.074-0.62,0.375-0.714
	c0.79-0.248,1.469-0.745,1.949-1.399c0.466-0.637,0.742-1.422,0.742-2.275c0-1.063-0.43-2.026-1.128-2.722
	c-0.696-0.696-1.659-1.128-2.722-1.128c-0.191,0-0.375,0.013-0.551,0.039c-0.177,0.025-0.347,0.062-0.512,0.11
	c-0.028,0.01-0.058,0.018-0.089,0.022c-0.31,0.053-0.606-0.156-0.659-0.466c-0.215-1.253-0.873-2.354-1.803-3.136
	c-0.916-0.77-2.1-1.233-3.394-1.233c-1.296,0-2.478,0.465-3.394,1.233c-0.931,0.784-1.588,1.883-1.803,3.136
	c-0.003,0.022-0.009,0.043-0.015,0.065c-0.089,0.301-0.405,0.475-0.708,0.386c-0.172-0.05-0.352-0.091-0.536-0.116
	c-0.175-0.025-0.359-0.039-0.551-0.039c-1.063,0-2.026,0.43-2.722,1.128c-0.696,0.696-1.128,1.659-1.128,2.722
	c0,0.852,0.276,1.638,0.742,2.275C45.842,69.706,46.523,70.204,47.313,70.451L47.313,70.451z M57.758,64.975
	c-0.025-0.009-0.05-0.018-0.076-0.027s-0.05-0.018-0.077-0.027c-0.025-0.009-0.052-0.016-0.077-0.025
	c-0.025-0.009-0.052-0.016-0.077-0.025c-0.025-0.007-0.052-0.016-0.079-0.024c-0.027-0.007-0.052-0.015-0.079-0.022
	c-0.027-0.007-0.052-0.015-0.079-0.022c-0.027-0.007-0.052-0.013-0.079-0.021c-0.027-0.007-0.053-0.013-0.08-0.021
	c-0.027-0.006-0.053-0.013-0.08-0.019s-0.053-0.012-0.08-0.018c-0.027-0.006-0.053-0.012-0.08-0.016
	c-0.027-0.006-0.053-0.01-0.082-0.016c-0.027-0.004-0.055-0.01-0.082-0.015c-0.027-0.004-0.055-0.009-0.082-0.013
	c-0.027-0.004-0.055-0.009-0.082-0.013c-0.027-0.004-0.055-0.009-0.082-0.012c-0.027-0.004-0.055-0.007-0.083-0.01
	c-0.028-0.003-0.055-0.007-0.083-0.01c-0.028-0.003-0.055-0.006-0.083-0.009c-0.028-0.003-0.056-0.006-0.085-0.007
	c-0.028-0.003-0.056-0.004-0.085-0.007c-0.028-0.001-0.056-0.004-0.085-0.006l-0.085-0.004c-0.028-0.001-0.056-0.003-0.085-0.004
	c-0.028-0.001-0.056-0.001-0.085-0.003c-0.028-0.001-0.056-0.001-0.086-0.001h-0.086h-0.086c-0.028,0-0.056,0.001-0.086,0.001
	c-0.028,0.001-0.056,0.001-0.085,0.003c-0.028,0.001-0.056,0.003-0.085,0.004c-0.028,0.001-0.056,0.003-0.085,0.004
	c-0.028,0.001-0.056,0.003-0.085,0.006c-0.028,0.001-0.056,0.004-0.085,0.007c-0.028,0.003-0.056,0.004-0.083,0.007
	c-0.028,0.003-0.055,0.006-0.083,0.009c-0.028,0.003-0.055,0.006-0.083,0.01c-0.028,0.003-0.055,0.007-0.083,0.01
	c-0.028,0.004-0.055,0.007-0.082,0.012c-0.027,0.004-0.055,0.009-0.082,0.013c-0.027,0.004-0.055,0.009-0.082,0.013
	c-0.027,0.004-0.055,0.01-0.082,0.015c-0.027,0.004-0.055,0.01-0.082,0.016c-0.027,0.006-0.053,0.01-0.08,0.016
	c-0.027,0.006-0.053,0.012-0.08,0.018s-0.053,0.013-0.08,0.019c-0.027,0.007-0.053,0.013-0.08,0.021
	c-0.027,0.007-0.053,0.013-0.079,0.021c-0.027,0.007-0.052,0.015-0.079,0.022c-0.027,0.007-0.052,0.015-0.079,0.022
	c-0.027,0.007-0.052,0.015-0.079,0.024c-0.025,0.007-0.052,0.016-0.077,0.025c-0.025,0.009-0.052,0.016-0.077,0.025
	c-0.025,0.009-0.05,0.018-0.077,0.027c-0.025,0.009-0.05,0.018-0.076,0.027c-0.025,0.009-0.05,0.019-0.076,0.028
	c-0.025,0.009-0.05,0.019-0.076,0.03c-0.025,0.01-0.05,0.019-0.074,0.03c-0.025,0.01-0.05,0.021-0.074,0.031
	c-0.025,0.01-0.049,0.021-0.074,0.033c-0.025,0.01-0.049,0.022-0.074,0.033c-0.025,0.01-0.049,0.022-0.073,0.034
	c-0.024,0.012-0.049,0.022-0.073,0.034c-0.024,0.012-0.049,0.024-0.073,0.036l-0.071,0.036c-0.024,0.012-0.047,0.025-0.071,0.037
	c-0.024,0.012-0.047,0.025-0.071,0.039c-0.024,0.013-0.047,0.025-0.07,0.039c-0.024,0.013-0.046,0.027-0.07,0.04
	c-0.022,0.013-0.046,0.027-0.07,0.04c-0.022,0.013-0.046,0.027-0.068,0.042c-0.022,0.013-0.046,0.028-0.068,0.042
	c-0.022,0.015-0.045,0.028-0.068,0.043c-0.022,0.015-0.045,0.028-0.067,0.043c-0.022,0.015-0.045,0.03-0.067,0.045
	c-0.022,0.015-0.045,0.03-0.065,0.045c-0.022,0.015-0.043,0.031-0.065,0.046c-0.022,0.015-0.043,0.031-0.065,0.046
	c-0.021,0.015-0.043,0.031-0.064,0.047c-0.021,0.016-0.043,0.033-0.064,0.047c-0.021,0.016-0.042,0.033-0.062,0.049
	c-0.021,0.016-0.042,0.033-0.062,0.049c-0.021,0.016-0.042,0.034-0.062,0.05s-0.04,0.034-0.061,0.05
	c-0.021,0.016-0.04,0.034-0.061,0.052c-0.019,0.018-0.04,0.034-0.059,0.052c-0.019,0.018-0.04,0.036-0.059,0.053
	c-0.019,0.018-0.039,0.036-0.058,0.053c-0.019,0.018-0.039,0.037-0.058,0.055c-0.019,0.018-0.039,0.037-0.058,0.055
	c-0.019,0.019-0.037,0.037-0.056,0.056l-0.056,0.056c-0.019,0.019-0.037,0.039-0.055,0.056c-0.018,0.019-0.037,0.039-0.055,0.058
	l-0.053,0.058c-0.018,0.019-0.036,0.039-0.053,0.059c-0.018,0.019-0.034,0.04-0.052,0.059c-0.018,0.021-0.034,0.04-0.052,0.061
	c-0.016,0.021-0.034,0.04-0.05,0.061c-0.016,0.021-0.034,0.04-0.05,0.062c-0.016,0.021-0.033,0.042-0.049,0.062
	c-0.016,0.021-0.033,0.042-0.049,0.062c-0.016,0.021-0.033,0.043-0.047,0.064c-0.016,0.021-0.031,0.043-0.047,0.064
	c-0.015,0.021-0.031,0.043-0.046,0.064c-0.015,0.022-0.031,0.043-0.046,0.065c-0.015,0.022-0.03,0.045-0.045,0.065
	c-0.015,0.022-0.03,0.045-0.045,0.067c-0.015,0.022-0.028,0.045-0.043,0.067c-0.015,0.022-0.028,0.045-0.043,0.068
	c-0.013,0.022-0.028,0.046-0.042,0.068s-0.027,0.046-0.042,0.068c-0.013,0.022-0.027,0.046-0.04,0.068
	c-0.013,0.022-0.027,0.046-0.04,0.07c-0.013,0.024-0.025,0.046-0.039,0.07s-0.025,0.047-0.037,0.07
	c-0.013,0.024-0.025,0.047-0.037,0.071l-0.036,0.071c-0.012,0.024-0.024,0.047-0.036,0.073c-0.012,0.024-0.022,0.049-0.034,0.073
	s-0.022,0.049-0.034,0.073c-0.01,0.025-0.022,0.049-0.033,0.074c-0.01,0.025-0.021,0.049-0.031,0.074
	c-0.01,0.025-0.021,0.049-0.031,0.074c-0.01,0.025-0.021,0.05-0.03,0.076c-0.01,0.025-0.019,0.05-0.03,0.076
	c-0.009,0.025-0.019,0.05-0.028,0.076c-0.009,0.025-0.018,0.05-0.027,0.076s-0.018,0.05-0.027,0.077
	c-0.009,0.025-0.016,0.052-0.025,0.077c-0.009,0.025-0.016,0.052-0.025,0.077c-0.007,0.025-0.016,0.052-0.024,0.079
	c-0.007,0.027-0.015,0.052-0.022,0.079s-0.015,0.052-0.022,0.079c-0.007,0.027-0.015,0.052-0.021,0.079
	c-0.007,0.027-0.013,0.053-0.019,0.08s-0.013,0.053-0.019,0.08c-0.006,0.027-0.012,0.053-0.018,0.08
	c-0.006,0.027-0.012,0.053-0.016,0.08c-0.006,0.027-0.01,0.053-0.016,0.082c-0.004,0.027-0.01,0.055-0.015,0.082
	c-0.004,0.027-0.009,0.055-0.013,0.082s-0.009,0.055-0.013,0.082c-0.004,0.027-0.009,0.055-0.012,0.082
	c-0.004,0.028-0.007,0.055-0.01,0.083c-0.003,0.028-0.007,0.055-0.01,0.083c-0.003,0.028-0.006,0.055-0.009,0.083
	c-0.003,0.028-0.006,0.056-0.007,0.083c-0.003,0.028-0.004,0.056-0.007,0.085c-0.001,0.028-0.004,0.056-0.006,0.085
	s-0.003,0.056-0.004,0.085s-0.003,0.056-0.003,0.085c-0.001,0.028-0.001,0.056-0.003,0.085c-0.001,0.028-0.001,0.056-0.001,0.086
	v0.086v0.004c0.001,1.827,0.742,3.482,1.94,4.679c1.196,1.202,2.852,1.944,4.682,1.944c1.83,0,3.486-0.742,4.685-1.94
	c1.199-1.199,1.94-2.855,1.94-4.685s-0.742-3.486-1.94-4.685c-0.019-0.019-0.037-0.037-0.056-0.056s-0.039-0.037-0.056-0.055
	c-0.019-0.018-0.039-0.037-0.058-0.055l-0.058-0.053c-0.039-0.036-0.079-0.071-0.119-0.105s-0.08-0.068-0.122-0.102
	c-0.021-0.016-0.042-0.034-0.062-0.05c-0.021-0.016-0.042-0.033-0.062-0.049c-0.042-0.033-0.085-0.065-0.126-0.096
	c-0.021-0.016-0.043-0.031-0.064-0.047c-0.021-0.015-0.043-0.031-0.064-0.046c-0.022-0.015-0.043-0.031-0.065-0.046
	c-0.022-0.015-0.045-0.03-0.065-0.045c-0.067-0.045-0.134-0.088-0.2-0.131c-0.022-0.013-0.045-0.028-0.068-0.042
	c-0.022-0.013-0.046-0.027-0.068-0.042c-0.022-0.013-0.046-0.027-0.07-0.04c-0.022-0.013-0.046-0.027-0.07-0.04
	c-0.07-0.039-0.141-0.077-0.212-0.114l-0.071-0.036c-0.024-0.012-0.047-0.024-0.073-0.036c-0.024-0.012-0.049-0.022-0.073-0.034
	c-0.025-0.01-0.049-0.022-0.073-0.034c-0.025-0.01-0.049-0.022-0.074-0.033c-0.025-0.01-0.049-0.021-0.074-0.033
	c-0.049-0.021-0.099-0.042-0.15-0.061C57.859,65.013,57.808,64.994,57.758,64.975L57.758,64.975z M49.997,71.199
	c0,1.514,0.613,2.885,1.606,3.876c0.993,0.993,2.363,1.606,3.876,1.606s2.885-0.613,3.876-1.606
	c0.993-0.993,1.606-2.363,1.606-3.876c0-1.514-0.614-2.885-1.606-3.876l-0.046-0.046c-0.016-0.015-0.031-0.031-0.047-0.046
	c-0.016-0.015-0.031-0.03-0.047-0.045c-0.016-0.015-0.033-0.03-0.049-0.045s-0.033-0.03-0.049-0.045
	c-0.016-0.015-0.033-0.028-0.049-0.043c-0.016-0.015-0.033-0.028-0.05-0.043c-0.016-0.015-0.034-0.028-0.05-0.043
	c-0.034-0.028-0.068-0.055-0.102-0.083c-0.018-0.013-0.034-0.027-0.052-0.04c-0.018-0.013-0.034-0.027-0.052-0.04
	c-0.018-0.013-0.036-0.027-0.053-0.039c-0.036-0.025-0.071-0.052-0.107-0.076c-0.018-0.013-0.036-0.025-0.055-0.037
	c-0.018-0.012-0.037-0.025-0.055-0.037c-0.018-0.012-0.037-0.024-0.055-0.036c-0.019-0.012-0.037-0.024-0.056-0.036
	c-0.037-0.024-0.076-0.046-0.113-0.068c-0.039-0.022-0.076-0.045-0.114-0.067c-0.019-0.01-0.039-0.021-0.058-0.033l-0.058-0.031
	c-0.019-0.01-0.039-0.021-0.059-0.031c-0.019-0.01-0.04-0.021-0.059-0.03c-0.019-0.01-0.04-0.019-0.059-0.03
	c-0.019-0.009-0.04-0.019-0.061-0.028s-0.04-0.019-0.061-0.028c-0.04-0.018-0.082-0.036-0.122-0.053
	c-0.021-0.009-0.042-0.016-0.062-0.025c-0.021-0.009-0.042-0.016-0.062-0.025c-0.021-0.009-0.042-0.016-0.062-0.024
	c-0.021-0.007-0.042-0.016-0.062-0.024c-0.021-0.007-0.042-0.015-0.064-0.022c-0.021-0.007-0.043-0.015-0.064-0.022
	c-0.043-0.015-0.085-0.028-0.128-0.042c-0.021-0.007-0.043-0.013-0.064-0.019c-0.022-0.006-0.043-0.013-0.065-0.019
	s-0.043-0.012-0.065-0.018s-0.043-0.012-0.065-0.018c-0.022-0.006-0.045-0.01-0.065-0.016c-0.022-0.006-0.045-0.01-0.067-0.016
	c-0.022-0.004-0.045-0.01-0.067-0.015c-0.022-0.004-0.045-0.009-0.067-0.015c-0.022-0.004-0.045-0.009-0.067-0.013
	c-0.022-0.004-0.045-0.009-0.067-0.013c-0.022-0.004-0.045-0.007-0.068-0.012c-0.022-0.004-0.045-0.007-0.068-0.01
	c-0.022-0.003-0.046-0.007-0.068-0.01c-0.022-0.003-0.046-0.006-0.068-0.009s-0.046-0.006-0.068-0.009s-0.046-0.004-0.068-0.007
	s-0.046-0.004-0.07-0.006c-0.022-0.001-0.046-0.004-0.07-0.006c-0.024-0.001-0.046-0.003-0.07-0.004
	c-0.024-0.001-0.046-0.003-0.07-0.004c-0.024-0.001-0.046-0.003-0.07-0.003c-0.024-0.001-0.047-0.001-0.07-0.003
	c-0.024,0-0.047-0.001-0.071-0.001h-0.071H55.41c-0.024,0-0.047,0.001-0.071,0.001c-0.024,0-0.047,0.001-0.07,0.003
	c-0.024,0.001-0.046,0.001-0.07,0.003c-0.024,0.001-0.046,0.003-0.07,0.004c-0.024,0.001-0.046,0.003-0.07,0.004
	c-0.024,0.001-0.046,0.003-0.07,0.006c-0.022,0.001-0.046,0.004-0.07,0.006c-0.022,0.003-0.046,0.004-0.068,0.007
	s-0.046,0.006-0.068,0.009s-0.046,0.006-0.068,0.009s-0.046,0.006-0.068,0.01c-0.022,0.003-0.045,0.007-0.068,0.01
	c-0.022,0.003-0.045,0.007-0.068,0.012c-0.022,0.004-0.045,0.009-0.067,0.013l-0.067,0.013c-0.022,0.004-0.045,0.009-0.067,0.015
	c-0.022,0.004-0.045,0.01-0.067,0.015c-0.022,0.004-0.045,0.01-0.067,0.016c-0.022,0.004-0.045,0.01-0.065,0.016
	c-0.022,0.006-0.045,0.012-0.065,0.018c-0.022,0.006-0.043,0.012-0.065,0.018s-0.043,0.013-0.065,0.019
	c-0.021,0.006-0.043,0.013-0.064,0.019c-0.021,0.007-0.043,0.013-0.064,0.021c-0.021,0.007-0.043,0.013-0.064,0.021
	c-0.021,0.007-0.043,0.015-0.064,0.022c-0.021,0.007-0.042,0.015-0.064,0.022c-0.021,0.007-0.042,0.015-0.062,0.024
	c-0.021,0.007-0.042,0.016-0.062,0.024c-0.021,0.009-0.042,0.016-0.062,0.025c-0.021,0.009-0.042,0.016-0.062,0.025
	s-0.042,0.018-0.061,0.027c-0.021,0.009-0.04,0.018-0.061,0.027c-0.021,0.009-0.04,0.019-0.061,0.028
	c-0.021,0.009-0.04,0.019-0.061,0.028s-0.04,0.019-0.059,0.03c-0.019,0.01-0.04,0.019-0.059,0.03
	c-0.019,0.01-0.039,0.021-0.059,0.031c-0.019,0.01-0.039,0.021-0.058,0.031c-0.019,0.01-0.039,0.021-0.058,0.033
	c-0.019,0.01-0.039,0.022-0.058,0.033c-0.019,0.01-0.039,0.022-0.056,0.033c-0.019,0.01-0.039,0.022-0.056,0.034
	c-0.019,0.012-0.037,0.022-0.056,0.034c-0.019,0.012-0.037,0.024-0.056,0.036s-0.037,0.024-0.055,0.036
	c-0.018,0.012-0.037,0.024-0.055,0.037c-0.018,0.012-0.037,0.025-0.055,0.037c-0.018,0.013-0.036,0.025-0.053,0.039
	c-0.018,0.013-0.036,0.025-0.053,0.039c-0.018,0.013-0.036,0.025-0.053,0.039c-0.018,0.013-0.036,0.027-0.052,0.04
	c-0.018,0.013-0.034,0.027-0.052,0.04c-0.018,0.013-0.034,0.027-0.052,0.042c-0.016,0.013-0.034,0.028-0.05,0.042
	c-0.016,0.013-0.034,0.028-0.05,0.043c-0.016,0.015-0.033,0.028-0.05,0.043c-0.016,0.015-0.033,0.028-0.049,0.043
	c-0.016,0.015-0.033,0.03-0.049,0.045c-0.016,0.015-0.033,0.03-0.049,0.045c-0.016,0.015-0.033,0.03-0.047,0.045
	c-0.016,0.015-0.031,0.031-0.047,0.046c-0.016,0.015-0.031,0.031-0.046,0.046s-0.031,0.031-0.046,0.046
	c-0.015,0.016-0.031,0.031-0.046,0.047c-0.015,0.016-0.03,0.033-0.045,0.047c-0.015,0.016-0.03,0.033-0.045,0.049
	c-0.015,0.016-0.03,0.033-0.045,0.049s-0.028,0.033-0.043,0.049c-0.015,0.016-0.028,0.033-0.043,0.05
	c-0.015,0.016-0.028,0.034-0.042,0.05c-0.015,0.016-0.028,0.034-0.042,0.05c-0.013,0.016-0.027,0.034-0.042,0.052
	c-0.013,0.018-0.027,0.034-0.04,0.052c-0.013,0.018-0.027,0.036-0.04,0.052c-0.013,0.018-0.027,0.036-0.039,0.053
	c-0.013,0.018-0.025,0.036-0.039,0.053s-0.025,0.036-0.037,0.053c-0.013,0.018-0.025,0.037-0.037,0.055
	c-0.012,0.018-0.025,0.037-0.037,0.055c-0.012,0.019-0.024,0.037-0.036,0.055c-0.012,0.019-0.024,0.037-0.036,0.056
	c-0.012,0.019-0.022,0.037-0.034,0.056c-0.012,0.019-0.022,0.039-0.034,0.056c-0.01,0.019-0.022,0.039-0.033,0.058
	s-0.022,0.039-0.033,0.058s-0.021,0.039-0.033,0.058c-0.01,0.019-0.021,0.039-0.031,0.058c-0.01,0.019-0.021,0.039-0.031,0.059
	c-0.01,0.019-0.021,0.04-0.03,0.059c-0.01,0.019-0.019,0.04-0.03,0.059c-0.009,0.019-0.019,0.04-0.028,0.061
	c-0.009,0.021-0.019,0.04-0.028,0.061s-0.018,0.04-0.027,0.061c-0.009,0.021-0.018,0.04-0.027,0.061
	c-0.009,0.021-0.016,0.042-0.025,0.062s-0.016,0.042-0.025,0.062c-0.009,0.021-0.016,0.042-0.024,0.062
	c-0.007,0.021-0.016,0.042-0.024,0.062c-0.007,0.021-0.015,0.042-0.022,0.064c-0.007,0.021-0.015,0.043-0.022,0.064
	s-0.015,0.043-0.021,0.064c-0.007,0.021-0.013,0.043-0.021,0.064c-0.007,0.021-0.013,0.043-0.019,0.064s-0.013,0.043-0.019,0.065
	s-0.012,0.043-0.018,0.065s-0.012,0.043-0.018,0.065s-0.01,0.045-0.016,0.065c-0.006,0.022-0.01,0.045-0.016,0.067
	c-0.004,0.022-0.01,0.045-0.015,0.067s-0.009,0.045-0.013,0.067c-0.004,0.022-0.009,0.045-0.013,0.067
	c-0.004,0.022-0.009,0.045-0.012,0.067c-0.004,0.022-0.007,0.045-0.012,0.068c-0.003,0.022-0.007,0.045-0.01,0.068
	c-0.003,0.022-0.007,0.045-0.01,0.068c-0.003,0.022-0.006,0.046-0.009,0.068s-0.006,0.046-0.009,0.068s-0.004,0.046-0.007,0.068
	s-0.004,0.046-0.007,0.07c-0.001,0.022-0.004,0.046-0.006,0.07c-0.001,0.024-0.003,0.046-0.004,0.07
	c-0.001,0.024-0.003,0.046-0.004,0.07s-0.001,0.046-0.003,0.07s-0.001,0.047-0.001,0.07c0,0.024-0.001,0.047-0.001,0.07
	C49.997,71.152,49.997,71.175,49.997,71.199L49.997,71.199z M55.732,67.281l-0.003-0.001l-0.004-0.003l-0.003-0.001H55.72
	l-0.003-0.001l-0.007-0.003l-0.003-0.001h-0.001l-0.009-0.004h-0.001l-0.003-0.001l-0.01-0.004H55.68l-0.012-0.004h-0.001
	c-0.059-0.021-0.122-0.033-0.188-0.033c-0.061,0-0.12,0.01-0.175,0.028l-0.013,0.004c-0.007,0.003-0.015,0.004-0.022,0.009
	l-0.003,0.001H55.26l-0.004,0.001l-0.003,0.001h-0.001l-0.009,0.004h-0.001l-0.003,0.001l-0.007,0.003l-0.004,0.004l-0.003,0.001
	l-0.004,0.003l-0.003,0.001l-0.001,0.001l-0.021,0.01l-0.001,0.001l-0.006,0.003l-0.004,0.004l-0.006,0.004l-0.001,0.001
	l-0.006,0.003l-0.001,0.001l-0.004,0.003h-0.001l-0.003,0.003l-0.004,0.003L55.15,67.33l-0.006,0.004l-0.001,0.001l-0.009,0.006
	l-0.001,0.001l-0.009,0.006h-0.001l-0.003,0.003L55.11,67.36l-0.001,0.001L55.1,67.369c-0.007,0.006-0.015,0.013-0.021,0.021
	l-2.559,2.559c-0.223,0.223-0.223,0.585,0,0.809c0.223,0.223,0.585,0.223,0.809,0l1.582-1.582v5.43c0,0.316,0.255,0.571,0.571,0.571
	c0.316,0,0.571-0.257,0.571-0.571l-0.003-5.432l1.582,1.582c0.223,0.223,0.585,0.223,0.809,0c0.223-0.223,0.223-0.585,0-0.809
	l-2.556-2.556v0.001l-0.036-0.036h-0.001l-0.009-0.009h-0.001l-0.012-0.012h-0.001l-0.003-0.003l-0.003-0.001l-0.001-0.001h-0.001
	l-0.001-0.001h-0.001l-0.003-0.003h-0.001l-0.001-0.001l0.036,0.028l-0.001-0.001c-0.021-0.016-0.042-0.031-0.062-0.045
	l-0.007-0.004C55.76,67.295,55.745,67.287,55.732,67.281L55.732,67.281z"/></svg>
