<svg xmlns="http://www.w3.org/2000/svg" viewBox="38.99 52.08 31.05 31.05" fill="currentColor" aria-hidden="true"><path d="M56.971,55.424c-2.528,0.003-4.953,1.01-6.741,2.797c-1.789,1.789-2.795,4.213-2.797,6.742
	c-0.013,2.207,0.749,4.351,2.153,6.056L42.78,77.85c-0.36,0.36-0.36,0.944,0,1.304s0.944,0.36,1.304,0l6.831-6.806
	c1.704,1.404,3.848,2.166,6.056,2.153c3.409,0,6.557-1.817,8.261-4.769c1.704-2.952,1.704-6.588,0-9.539
	C63.528,57.243,60.379,55.424,56.971,55.424L56.971,55.424z M56.971,72.655c-2.04,0-3.996-0.81-5.439-2.252
	c-1.442-1.444-2.252-3.399-2.252-5.439s0.81-3.997,2.252-5.439c1.444-1.444,3.399-2.254,5.439-2.254c2.04,0,3.997,0.81,5.439,2.254
	c1.444,1.442,2.254,3.399,2.254,5.439s-0.81,3.996-2.254,5.439C60.968,71.845,59.011,72.655,56.971,72.655z"/>
<path d="M60.252,64.025h-6.782c-0.375,0-0.678,0.304-0.678,0.678c0,0.375,0.304,0.678,0.678,0.678l6.782,0.001
	c0.375,0,0.678-0.304,0.678-0.678C60.93,64.329,60.627,64.025,60.252,64.025z"/>
<path d="M57.54,68.094v-6.782c0-0.375-0.304-0.678-0.678-0.678c-0.375,0-0.678,0.304-0.678,0.678l-0.001,6.782
	c0,0.375,0.304,0.678,0.678,0.678C57.236,68.772,57.54,68.47,57.54,68.094z"/></svg>
